<?xml version="1.0" encoding="utf-8"?>
<!-- Generator: Adobe Illustrator 16.0.0, SVG Export Plug-In . SVG Version: 6.00 Build 0)  -->
<!DOCTYPE svg PUBLIC "-//W3C//DTD SVG 1.1//EN" "http://www.w3.org/Graphics/SVG/1.1/DTD/svg11.dtd">
<svg version="1.1" id="Layer_1" xmlns="http://www.w3.org/2000/svg" xmlns:xlink="http://www.w3.org/1999/xlink" x="0px" y="0px"
	 width="30.917px" height="18.338px" viewBox="0 0 30.917 18.338" enable-background="new 0 0 30.917 18.338" xml:space="preserve">
<path fill="#266397" d="M30.557,15.956v1.662c0,0.376-0.313,0.721-0.721,0.721H1.08c-0.376,0-0.721-0.313-0.721-0.721v-1.662
	c0-2.038,1.223-3.857,3.104-4.641c-1.568-1.066-1.976-3.199-0.909-4.767C3.62,4.98,5.753,4.573,7.32,5.639
	c1.568,1.065,1.976,3.198,0.91,4.766c-0.251,0.346-0.564,0.659-0.91,0.91c0.69,0.281,1.317,0.752,1.851,1.316
	c0.689-1.693,2.007-3.073,3.7-3.763c-2.101-1.442-2.665-4.327-1.223-6.429c1.442-2.101,4.296-2.665,6.428-1.223
	c2.133,1.442,2.666,4.327,1.224,6.428c-0.313,0.471-0.753,0.91-1.224,1.224c1.693,0.689,3.011,2.069,3.7,3.763
	c0.502-0.564,1.129-1.035,1.851-1.316c-1.568-1.066-1.976-3.199-0.909-4.767c1.065-1.568,3.198-1.976,4.766-0.909
	c1.568,1.065,1.976,3.198,0.91,4.766c-0.251,0.346-0.564,0.659-0.91,0.91C29.365,12.067,30.588,13.917,30.557,15.956z"/>
</svg>
