<?xml version="1.0" encoding="utf-8"?>
<!-- Generator: Adobe Illustrator 16.0.0, SVG Export Plug-In . SVG Version: 6.00 Build 0)  -->
<!DOCTYPE svg PUBLIC "-//W3C//DTD SVG 1.1//EN" "http://www.w3.org/Graphics/SVG/1.1/DTD/svg11.dtd">
<svg version="1.1" id="Layer_1" xmlns="http://www.w3.org/2000/svg" xmlns:xlink="http://www.w3.org/1999/xlink" x="0px" y="0px"
	 width="27.138px" height="25.96px" viewBox="0 0 27.138 25.96" enable-background="new 0 0 27.138 25.96" xml:space="preserve">
<path fill="#266397" d="M17.2,17.514c-0.182,0.242-0.425,0.363-0.697,0.363c-0.183,0-0.364-0.061-0.516-0.182l-3.396-2.547
	c-0.213-0.152-0.364-0.425-0.364-0.698V8.445c0-0.484,0.394-0.879,0.88-0.879c0.485,0,0.879,0.395,0.879,0.879v5.52l3.033,2.305
	C17.412,16.573,17.503,17.119,17.2,17.514z M13.621,3.229c-5.883,0-10.675,4.792-10.675,10.675c0,2.427,0.819,4.671,2.184,6.49
	L2.4,23.094c-0.333,0.334-0.333,0.91,0,1.243c0.182,0.182,0.395,0.243,0.637,0.243s0.455-0.092,0.637-0.243l2.639-2.639
	c1.91,1.79,4.488,2.911,7.308,2.911c2.851,0,5.459-1.121,7.399-2.972l2.73,2.729c0.182,0.182,0.394,0.242,0.637,0.242
	c0.242,0,0.455-0.091,0.637-0.242c0.334-0.334,0.334-0.91,0-1.243l-2.79-2.79c1.334-1.789,2.122-4.003,2.122-6.399
	C24.267,8.021,19.505,3.229,13.621,3.229z"/>
<path fill="#266397" d="M2.643,8.173c0.243,0,0.455-0.091,0.637-0.242l4.215-4.216c0.333-0.334,0.333-0.91,0-1.243
	C6.768,1.744,5.797,1.35,4.766,1.35S2.765,1.744,2.037,2.472c-1.516,1.517-1.516,3.942,0,5.459C2.188,8.082,2.4,8.173,2.643,8.173z"
	/>
<path fill="#266397" d="M22.355,1.35c-1.031,0-2.001,0.395-2.729,1.122c-0.334,0.333-0.334,0.909,0,1.243l4.215,4.216
	c0.183,0.182,0.395,0.242,0.638,0.242c0.242,0,0.454-0.091,0.637-0.242c0.728-0.729,1.122-1.698,1.122-2.729
	s-0.395-2.002-1.122-2.729C24.356,1.744,23.356,1.35,22.355,1.35z"/>
</svg>
