<?xml version="1.0" encoding="utf-8"?>
<!-- Generator: Adobe Illustrator 16.0.0, SVG Export Plug-In . SVG Version: 6.00 Build 0)  -->
<!DOCTYPE svg PUBLIC "-//W3C//DTD SVG 1.1//EN" "http://www.w3.org/Graphics/SVG/1.1/DTD/svg11.dtd">
<svg version="1.1" id="Layer_1" xmlns="http://www.w3.org/2000/svg" xmlns:xlink="http://www.w3.org/1999/xlink" x="0px" y="0px"
	 width="14.98px" height="21.434px" viewBox="0 0 14.98 21.434" enable-background="new 0 0 14.98 21.434" xml:space="preserve">
<path fill="#FFFFFF" d="M14.856,11.765c-0.222,0.913-0.69,1.554-1.406,1.925c0.616-3.355-0.419-6.537-2.516-9.571
	c0.592,2.121,0.247,3.946-1.036,5.476C8.048,5.55,9.726,2.59,11.65,0C7.703,1.924,4.99,5.032,4.052,9.718
	C3.337,8.46,3.288,7.227,3.88,6.019c-2.688,2.121-3.157,4.81-2.27,7.869c-0.74-0.321-1.233-0.963-1.529-1.851
	c0,0-0.691,4.638,1.948,7.745c0.617,0.74,1.381,1.283,2.22,1.652c1.085-1.701,1.776-3.65,1.381-5.648
	c1.16,0.962,1.776,2.097,2.047,3.231c0.74-1.505,1.135-3.38,0.469-5.501c2.64,2.764,2.663,5.896,2.343,7.795
	c1.11-0.518,2.121-1.308,2.861-2.27C15.621,16.106,14.856,11.765,14.856,11.765z"/>
</svg>
