<?xml version="1.0" encoding="utf-8"?>
<!-- Generator: Adobe Illustrator 16.0.0, SVG Export Plug-In . SVG Version: 6.00 Build 0)  -->
<!DOCTYPE svg PUBLIC "-//W3C//DTD SVG 1.1//EN" "http://www.w3.org/Graphics/SVG/1.1/DTD/svg11.dtd">
<svg version="1.1" id="Layer_1" xmlns="http://www.w3.org/2000/svg" xmlns:xlink="http://www.w3.org/1999/xlink" x="0px" y="0px"
	 width="17.48px" height="17.452px" viewBox="0 0 17.48 17.452" enable-background="new 0 0 17.48 17.452" xml:space="preserve">
<path fill="#266397" d="M11.517,17.206c-0.822-0.206-1.646-0.548-2.502-0.96c-0.377-0.205-0.788-0.411-1.166-0.65
	c-0.377-0.24-0.754-0.515-1.131-0.789c-0.377-0.273-0.754-0.582-1.097-0.891c-0.377-0.309-0.72-0.651-1.063-0.994
	s-0.651-0.686-0.96-1.063c-0.309-0.343-0.616-0.721-0.891-1.098s-0.549-0.754-0.789-1.164C1.68,9.22,1.439,8.809,1.269,8.432
	c-0.446-0.857-0.755-1.68-0.96-2.502C0.103,5.107,0,4.318,0,3.53c0-0.515,0.171-0.96,0.514-1.405s0.617-0.754,0.823-0.926
	C1.611,0.926,1.954,0.65,2.365,0.411C2.708,0.137,3.085,0,3.428,0c0.171,0,0.343,0.068,0.548,0.171
	c0.206,0.103,0.412,0.274,0.686,0.515c0.172,0.171,0.377,0.377,0.583,0.582c0.206,0.24,0.411,0.48,0.617,0.754
	c0.137,0.172,0.411,0.549,0.856,1.2c0.446,0.651,0.651,1.165,0.651,1.577c0,0.342-0.137,0.617-0.445,0.856s-0.651,0.479-1.063,0.72
	C5.724,6.479,5.553,6.547,5.416,6.649C5.278,6.752,5.142,6.855,5.038,6.924C4.901,7.026,4.833,7.095,4.799,7.129
	C4.765,7.164,4.765,7.197,4.765,7.232c0.205,0.514,0.514,1.063,0.891,1.61c0.411,0.548,0.857,1.063,1.337,1.577
	c0.514,0.479,1.028,0.959,1.576,1.336c0.549,0.412,1.098,0.686,1.611,0.892c0,0,0.034,0,0.103-0.034
	c0.034-0.034,0.138-0.104,0.24-0.24c0.103-0.103,0.172-0.24,0.274-0.377s0.171-0.309,0.274-0.445
	c0.239-0.377,0.514-0.754,0.754-1.063c0.239-0.309,0.514-0.48,0.856-0.48c0.412,0,0.926,0.206,1.577,0.652
	c0.651,0.445,1.063,0.719,1.199,0.856c0.274,0.206,0.515,0.411,0.754,0.616c0.24,0.206,0.412,0.412,0.583,0.583
	c0.24,0.24,0.411,0.479,0.514,0.686c0.104,0.206,0.172,0.378,0.172,0.549c0,0.343-0.137,0.685-0.377,1.097
	c-0.24,0.411-0.514,0.754-0.788,1.028c-0.172,0.206-0.48,0.479-0.926,0.822s-0.926,0.515-1.405,0.515
	C13.162,17.515,12.339,17.412,11.517,17.206z"/>
</svg>
