<?xml version="1.0" encoding="utf-8"?>
<!-- Generator: Adobe Illustrator 16.0.0, SVG Export Plug-In . SVG Version: 6.00 Build 0)  -->
<!DOCTYPE svg PUBLIC "-//W3C//DTD SVG 1.1//EN" "http://www.w3.org/Graphics/SVG/1.1/DTD/svg11.dtd">
<svg version="1.1" id="Layer_1" xmlns="http://www.w3.org/2000/svg" xmlns:xlink="http://www.w3.org/1999/xlink" x="0px" y="0px"
	 width="17.735px" height="23.245px" viewBox="0 0 17.735 23.245" enable-background="new 0 0 17.735 23.245" xml:space="preserve">
<path fill="#FFFFFF" stroke="#FFFFFF" stroke-width="0.5" d="M11.296,19.295c0.095,0,0.163-0.027,0.231-0.096
	c0.068-0.067,0.096-0.149,0.096-0.258c0-0.109-0.027-0.19-0.096-0.259c-0.068-0.067-0.15-0.095-0.231-0.095H7.324v-2.53h1.795
	c0.109,0,0.19-0.027,0.259-0.096c0.068-0.067,0.095-0.149,0.095-0.259c0-0.095-0.027-0.163-0.095-0.23
	c-0.068-0.068-0.15-0.096-0.259-0.096H7.324v-0.734c0-0.477,0.204-0.898,0.585-1.266s0.843-0.544,1.36-0.544
	c0.34,0,0.68,0.082,0.993,0.259c0.326,0.177,0.572,0.395,0.734,0.666c0.041,0.082,0.109,0.123,0.191,0.15
	c0.027,0.014,0.067,0.014,0.095,0.014c0.068,0,0.122-0.014,0.19-0.041c0.082-0.041,0.123-0.109,0.15-0.204
	c0.026-0.095,0.014-0.19-0.027-0.272c-0.205-0.354-0.531-0.666-0.953-0.897c-0.435-0.231-0.897-0.354-1.36-0.354
	c-0.327,0-0.653,0.068-0.979,0.19c-0.313,0.122-0.612,0.299-0.857,0.544c-0.259,0.231-0.463,0.517-0.612,0.816
	c-0.136,0.313-0.218,0.626-0.218,0.952v0.734H5.896c-0.109,0-0.19,0.027-0.259,0.096c-0.068,0.067-0.095,0.149-0.095,0.23
	c0,0.109,0.027,0.191,0.095,0.259c0.068,0.068,0.15,0.095,0.259,0.095h0.721v2.885c0,0.108,0.027,0.19,0.095,0.258
	c0.068,0.068,0.15,0.096,0.259,0.096h2.322h2.003V19.295z M8.847,1.039c-1.401,0-2.612,0.503-3.591,1.496
	C4.263,3.528,3.76,4.739,3.76,6.127V8.48h10.203V6.127c0-1.401-0.504-2.612-1.497-3.592C11.486,1.542,10.262,1.039,8.847,1.039z
	 M1.991,9.269c-0.259,0-0.49,0.095-0.68,0.286s-0.286,0.422-0.286,0.694v10.964c0,0.272,0.095,0.518,0.286,0.693
	c0.19,0.191,0.421,0.286,0.68,0.286h13.726c0.272,0,0.518-0.095,0.694-0.286c0.19-0.189,0.285-0.421,0.285-0.693V10.249
	c0-0.272-0.095-0.517-0.285-0.694c-0.19-0.19-0.422-0.286-0.694-0.286H1.991z M1.991,22.995c-0.476,0-0.884-0.163-1.225-0.517
	c-0.354-0.354-0.517-0.762-0.517-1.252V10.249c0-0.503,0.163-0.912,0.517-1.251C1.121,8.644,1.515,8.48,1.991,8.48h0.979V6.127
	c0-0.816,0.149-1.592,0.462-2.299C3.732,3.12,4.167,2.495,4.698,1.964c0.53-0.53,1.17-0.952,1.877-1.251
	C7.283,0.399,8.045,0.25,8.847,0.25c0.816,0,1.592,0.149,2.299,0.462c0.707,0.299,1.347,0.735,1.877,1.251
	c0.531,0.531,0.952,1.156,1.266,1.864c0.299,0.708,0.462,1.483,0.462,2.299V8.48h0.966c0.504,0,0.912,0.164,1.252,0.517
	c0.354,0.354,0.517,0.762,0.517,1.251v10.964c0,0.504-0.163,0.912-0.517,1.252c-0.354,0.354-0.762,0.517-1.252,0.517H1.991V22.995z"
	/>
</svg>
