<?xml version="1.0" encoding="utf-8"?>
<!-- Generator: Adobe Illustrator 16.0.0, SVG Export Plug-In . SVG Version: 6.00 Build 0)  -->
<!DOCTYPE svg PUBLIC "-//W3C//DTD SVG 1.1//EN" "http://www.w3.org/Graphics/SVG/1.1/DTD/svg11.dtd">
<svg version="1.1" id="Layer_1" xmlns="http://www.w3.org/2000/svg" xmlns:xlink="http://www.w3.org/1999/xlink" x="0px" y="0px"
	 width="83.064px" height="77.724px" viewBox="0 0 83.064 77.724" enable-background="new 0 0 83.064 77.724" xml:space="preserve">
<path fill="#FFFFFF" d="M62.211,44.044c7.255,0,12.954,5.699,12.954,12.953s-5.699,12.954-12.954,12.954
	c-7.254,0-12.954-5.7-12.954-12.954S54.957,44.044,62.211,44.044z M62.211,41.452c-8.55,0-15.544,6.995-15.544,15.545
	s6.994,15.545,15.544,15.545s15.545-6.995,15.545-15.545S70.761,41.452,62.211,41.452z M62.211,31.089
	c-1.296,0-2.591,1.295-2.591,2.591c0,1.036,0.519,1.813,1.295,2.073v3.109h2.592v-3.109c0.777-0.518,1.295-1.295,1.295-2.073
	C64.802,32.126,63.507,31.089,62.211,31.089z M57.029,28.499h10.363c1.555,0,2.591,1.037,2.591,2.591v8.55
	c0,0.518,0.26,1.035,0.777,1.295c7.254,3.887,11.141,12.436,9.068,20.467c-2.073,8.031-9.328,13.731-17.618,13.731
	s-15.544-5.699-17.617-13.731c-2.073-8.031,1.813-16.58,9.067-20.467c0.519-0.26,0.777-0.777,0.777-1.295v-8.55
	C54.438,29.535,55.476,28.499,57.029,28.499z M20.759,28.499c7.254,0,12.954,5.7,12.954,12.954c0,7.255-5.7,12.954-12.954,12.954
	c-7.254,0-12.954-5.699-12.954-12.954C7.805,34.198,13.504,28.499,20.759,28.499z M20.759,25.908
	c-8.55,0-15.545,6.995-15.545,15.544c0,8.551,6.995,15.545,15.545,15.545c8.549,0,15.544-6.994,15.544-15.545
	C36.303,32.903,29.308,25.908,20.759,25.908z M62.211,15.545c0.777,0,1.296,0.518,1.296,1.295v2.59c0,0.777-0.519,1.295-1.037,1.295
	c0,0,0,0-0.259,0c-0.776,0-1.036-0.518-1.036-1.295v-2.59C60.915,16.063,61.435,15.545,62.211,15.545z M20.759,15.545
	c-1.295,0-2.591,1.295-2.591,2.59c0,1.037,0.518,1.813,1.295,2.073v3.109h2.591v-3.109c0.777-0.518,1.295-1.295,1.295-2.073
	C23.35,16.581,22.054,15.545,20.759,15.545z M15.577,12.954H25.94c1.555,0,2.591,1.036,2.591,2.591v8.29
	c-0.259,0.518,0.259,1.295,0.777,1.555c7.254,3.886,11.141,12.436,9.068,20.467s-9.327,13.731-17.617,13.731
	s-15.545-5.7-17.618-13.731c-2.072-8.031,1.814-16.581,9.068-20.467c0.518-0.259,0.777-0.777,0.777-1.295v-8.55
	C12.986,13.99,14.022,12.954,15.577,12.954z M55.733,2.591h2.592c0.777,0,1.295,0.518,1.295,1.295s-0.518,1.295-1.295,1.295h-2.592
	c-0.776,0-1.295-0.518-1.295-1.295S54.957,2.591,55.733,2.591z M40.189,2.591h2.591c0.777,0,1.295,0.518,1.295,1.295
	s-0.518,1.295-1.295,1.295h-2.591c-0.777,0-1.295-0.518-1.295-1.295S39.412,2.591,40.189,2.591z M24.645,2.591h2.59
	c0.777,0,1.295,0.518,1.295,1.295s-0.518,1.295-1.295,1.295h-2.59c-0.777,0-1.295-0.518-1.295-1.295S23.868,2.591,24.645,2.591z
	 M24.645,0c-2.073,0-3.886,1.813-3.886,3.886c0,0.259,0,0.259,0,0.518c-0.777,1.037-1.295,2.073-1.295,3.368v2.591h-3.886
	c-2.85,0-5.182,2.332-5.182,5.182v8.031C2.364,28.24-1.522,37.566,0.55,46.375c2.332,9.327,10.623,15.804,20.208,15.804
	s17.876-6.477,20.208-15.804c2.331-9.068-1.813-18.395-9.845-22.799v-8.031c0-2.85-2.332-5.182-5.182-5.182h-3.886V7.772
	c0-0.259,0-0.518,0.259-0.777c0.777,0.518,1.555,0.777,2.332,0.777h2.59c1.555,0,3.109-1.037,3.627-2.591h5.7
	c0.518,1.554,2.072,2.591,3.627,2.591h2.591c1.555,0,3.109-1.037,3.627-2.591h5.699c0.519,1.554,2.073,2.591,3.627,2.591h2.592
	c1.036,0,1.813-0.518,2.59-1.037v6.477c-1.554,0.518-2.59,2.073-2.59,3.627v2.59c0,1.555,1.036,3.109,2.59,3.627v2.85h-3.886
	c-2.85,0-5.181,2.332-5.181,5.182v8.031c-8.032,4.664-11.918,13.99-9.846,22.799c2.332,9.327,10.622,15.804,20.208,15.804
	s17.876-6.477,20.208-15.804c2.332-9.067-1.813-18.395-9.845-22.799v-8.031c0-2.85-2.331-5.182-5.182-5.182h-3.886v-2.85
	c1.555-0.518,2.59-2.073,2.59-3.627v-2.59c0-1.555-1.035-3.109-2.59-3.627V3.886c0-0.777-0.519-1.295-1.296-1.295h-0.259
	C61.435,1.037,59.88,0,58.325,0h-2.592c-1.554,0-3.108,1.037-3.627,2.591h-5.699C45.89,1.037,44.335,0,42.78,0h-2.591
	c-1.555,0-3.109,1.037-3.627,2.591h-5.7C30.345,1.037,28.79,0,27.235,0H24.645z"/>
</svg>
