<?xml version="1.0" encoding="utf-8"?>
<!-- Generator: Adobe Illustrator 16.0.0, SVG Export Plug-In . SVG Version: 6.00 Build 0)  -->
<!DOCTYPE svg PUBLIC "-//W3C//DTD SVG 1.1//EN" "http://www.w3.org/Graphics/SVG/1.1/DTD/svg11.dtd">
<svg version="1.1" id="Layer_1" xmlns="http://www.w3.org/2000/svg" xmlns:xlink="http://www.w3.org/1999/xlink" x="0px" y="0px"
	 width="79.176px" height="69.417px" viewBox="0 0 79.176 69.417" enable-background="new 0 0 79.176 69.417" xml:space="preserve">
<path fill="#FFFFFF" d="M14.509,28.768l13.664,13.427l38.974-22.458L57.76,3.814L14.509,28.768z M4.171,34.708l13.664,13.426
	l7.605-4.396L11.775,30.312L4.171,34.708z M41.956,53.72c-2.495,0-4.396,2.021-4.396,4.516s2.021,4.515,4.396,4.515
	c2.495,0,4.516-2.02,4.516-4.515S44.333,53.72,41.956,53.72z M77.603,69.167c-0.831,0-1.426-0.713-1.426-1.426v-8.08H49.204
	l-0.237,0.595c-0.95,3.089-3.802,5.347-7.129,5.347c-4.04,0-7.367-3.327-7.367-7.367c0-3.208,2.139-6.179,5.347-7.13l0.594-0.237
	V38.511L18.311,51.225c-0.237,0.119-0.476,0.238-0.713,0.238c-0.356,0-0.713-0.119-1.069-0.476L0.725,35.421
	c-0.356-0.238-0.475-0.713-0.475-1.188c0-0.476,0.356-0.832,0.713-1.069L57.641,0.487c0.119-0.119,0.476-0.237,0.713-0.237
	c0.476,0,1.069,0.237,1.308,0.713l10.693,18.536c0.356,0.713,0.119,1.664-0.594,2.02L43.382,36.729v14.14l0.595,0.237
	c2.376,0.713,4.277,2.614,4.99,4.991l0.237,0.594h26.854v-8.08c0-0.831,0.713-1.426,1.426-1.426s1.426,0.713,1.426,1.426v19.012
	C79.029,68.572,78.435,69.167,77.603,69.167z"/>
<path fill="none" stroke="#FFFFFF" stroke-width="0.5" d="M14.509,28.768l13.664,13.427l38.974-22.458L57.76,3.814L14.509,28.768z
	 M4.171,34.708l13.664,13.426l7.605-4.396L11.775,30.312L4.171,34.708z M41.956,53.72c-2.495,0-4.396,2.021-4.396,4.516
	s2.021,4.515,4.396,4.515c2.495,0,4.516-2.02,4.516-4.515S44.333,53.72,41.956,53.72z M77.603,69.167
	c-0.831,0-1.426-0.713-1.426-1.426v-8.08H49.204l-0.237,0.595c-0.95,3.089-3.802,5.347-7.129,5.347c-4.04,0-7.367-3.327-7.367-7.367
	c0-3.208,2.139-6.179,5.347-7.13l0.594-0.237V38.511L18.311,51.225c-0.237,0.119-0.476,0.238-0.713,0.238
	c-0.356,0-0.713-0.119-1.069-0.476L0.725,35.421c-0.356-0.238-0.475-0.713-0.475-1.188c0-0.476,0.356-0.832,0.713-1.069
	L57.641,0.487c0.119-0.119,0.476-0.237,0.713-0.237c0.476,0,1.069,0.237,1.308,0.713l10.693,18.536
	c0.356,0.713,0.119,1.664-0.594,2.02L43.382,36.729v14.14l0.595,0.237c2.376,0.713,4.277,2.614,4.99,4.991l0.237,0.594h26.854v-8.08
	c0-0.831,0.713-1.426,1.426-1.426s1.426,0.713,1.426,1.426v19.012C79.029,68.572,78.435,69.167,77.603,69.167z"/>
</svg>
