<?xml version="1.0" encoding="utf-8"?>
<!-- Generator: Adobe Illustrator 16.0.0, SVG Export Plug-In . SVG Version: 6.00 Build 0)  -->
<!DOCTYPE svg PUBLIC "-//W3C//DTD SVG 1.1//EN" "http://www.w3.org/Graphics/SVG/1.1/DTD/svg11.dtd">
<svg version="1.1" id="Layer_1" xmlns="http://www.w3.org/2000/svg" xmlns:xlink="http://www.w3.org/1999/xlink" x="0px" y="0px"
	 width="52.3px" height="65.987px" viewBox="0 0 52.3 65.987" enable-background="new 0 0 52.3 65.987" xml:space="preserve">
<g>
	<path fill="#FFFFFF" d="M42.296,51.886c-3.77,3.361-8.688,6.639-13.523,9.754c-0.819,0.492-1.557,1.065-2.377,1.557
		c0,0-0.082,0.082-0.164,0.082c-0.164,0-0.328-0.082-0.41-0.082c-0.738-0.491-1.557-0.982-2.295-1.475
		c-4.835-3.278-9.753-6.475-13.523-9.836c-0.574-0.573-1.147-1.065-1.721-1.557C34.1,44.018,45.247,32.215,49.509,25.74v13.605
		C49.509,43.444,47.214,47.378,42.296,51.886z M2.708,33.444c24.425-0.328,41.227-11.146,46.8-15.327v2.541
		c-0.819,1.967-9.426,19.753-43.112,27.54c-2.459-3.033-3.688-5.983-3.688-8.935V33.444z M13.036,8.61
		c1.066-0.574,2.131-1.312,3.197-2.049c2.705-1.885,5.409-3.852,8.934-3.852h1.885c3.524,0,6.229,1.967,8.934,3.77
		c1.065,0.738,2.131,1.475,3.196,2.049c3.524,1.885,8.196,2.623,10.327,2.868v3.606c-2.869,2.295-20.49,15.573-46.8,15.983V11.479
		C4.84,11.233,9.511,10.495,13.036,8.61z M50.902,9.102c-0.082,0-6.394-0.491-10.491-2.704C39.51,5.905,38.526,5.25,37.46,4.512
		C34.592,2.545,31.396,0.25,27.051,0.25h-1.885c-4.262,0-7.458,2.295-10.327,4.262c-1.065,0.738-2.049,1.394-2.951,1.886
		C7.79,8.61,1.479,9.102,1.397,9.102C0.742,9.184,0.25,9.758,0.25,10.331v28.933c0,4.918,2.541,9.426,8.114,14.426
		c3.935,3.524,8.934,6.803,13.77,9.999c0.819,0.492,1.557,1.065,2.377,1.558c0,0,0.082,0,0.082,0.082
		c0.164,0.082,0.82,0.409,1.639,0.409c0.574,0,1.066-0.164,1.558-0.491c0.819-0.492,1.557-1.065,2.377-1.558
		c4.835-3.196,9.917-6.475,13.77-9.999c5.491-4.918,8.114-9.508,8.114-14.426V10.331C51.968,9.758,51.476,9.184,50.902,9.102z"/>
	<path fill="none" stroke="#FFFFFF" stroke-width="0.5" d="M42.563,51.766c-3.771,3.359-8.688,6.639-13.524,9.753
		c-0.819,0.491-1.557,1.065-2.377,1.558c0,0-0.082,0.082-0.164,0.082c-0.164,0-0.328-0.082-0.41-0.082
		c-0.738-0.492-1.557-0.984-2.295-1.476c-4.835-3.278-9.753-6.476-13.523-9.835c-0.574-0.574-1.147-1.066-1.721-1.558
		c25.818-6.312,36.964-18.114,41.226-24.589v13.605C49.775,43.322,47.48,47.257,42.563,51.766z M2.708,33.444
		c24.425-0.328,41.227-11.146,46.8-15.327v2.541c-0.819,1.967-9.426,19.753-43.112,27.54c-2.459-3.033-3.688-5.983-3.688-8.935
		V33.444z M13.036,8.61c1.066-0.574,2.131-1.312,3.197-2.049c2.705-1.885,5.409-3.852,8.934-3.852h1.885
		c3.524,0,6.229,1.967,8.934,3.77c1.065,0.738,2.131,1.475,3.196,2.049c3.524,1.885,8.196,2.623,10.327,2.868v3.606
		c-2.869,2.295-20.49,15.573-46.8,15.983V11.479C4.84,11.233,9.511,10.495,13.036,8.61z M50.902,9.102
		c-0.082,0-6.394-0.491-10.491-2.704C39.51,5.905,38.526,5.25,37.46,4.512C34.592,2.545,31.396,0.25,27.051,0.25h-1.885
		c-4.262,0-7.458,2.295-10.327,4.262c-1.065,0.738-2.049,1.394-2.951,1.886C7.79,8.61,1.479,9.102,1.397,9.102
		C0.742,9.184,0.25,9.758,0.25,10.331v28.933c0,4.918,2.541,9.426,8.114,14.426c3.935,3.524,8.934,6.803,13.77,9.999
		c0.819,0.492,1.557,1.065,2.377,1.558c0,0,0.082,0,0.082,0.082c0.164,0.082,0.82,0.409,1.639,0.409
		c0.574,0,1.066-0.164,1.558-0.491c0.819-0.492,1.557-1.065,2.377-1.558c4.835-3.196,9.917-6.475,13.77-9.999
		c5.491-4.918,8.114-9.508,8.114-14.426V10.331C51.968,9.758,51.476,9.184,50.902,9.102z"/>
</g>
</svg>
