<?xml version="1.0" encoding="utf-8"?>
<!-- Generator: Adobe Illustrator 16.0.0, SVG Export Plug-In . SVG Version: 6.00 Build 0)  -->
<!DOCTYPE svg PUBLIC "-//W3C//DTD SVG 1.1//EN" "http://www.w3.org/Graphics/SVG/1.1/DTD/svg11.dtd">
<svg version="1.1" id="Layer_1" xmlns="http://www.w3.org/2000/svg" xmlns:xlink="http://www.w3.org/1999/xlink" x="0px" y="0px"
	 width="21.345px" height="22.445px" viewBox="0 0 21.345 22.445" enable-background="new 0 0 21.345 22.445" xml:space="preserve">
<path fill="#FFFFFF" stroke="#FFFFFF" stroke-width="0.5" d="M1.345,8.478c0,0.987,0.187,1.908,0.566,2.774
	c0.379,0.867,0.891,1.619,1.535,2.27c0.644,0.649,1.396,1.161,2.263,1.534c0.867,0.374,1.788,0.56,2.775,0.56
	c0.987,0,1.908-0.186,2.775-0.56c0.866-0.373,1.618-0.885,2.263-1.534c0.645-0.65,1.156-1.408,1.535-2.27
	c0.379-0.867,0.565-1.788,0.565-2.774c0-0.987-0.187-1.908-0.565-2.775s-0.891-1.619-1.535-2.263s-1.396-1.156-2.263-1.535
	c-0.867-0.379-1.788-0.565-2.775-0.565c-0.987,0-1.908,0.187-2.775,0.565C4.842,2.284,4.09,2.796,3.446,3.44
	S2.291,4.842,1.911,5.703C1.532,6.57,1.345,7.491,1.345,8.478z M20.955,21.274c0.102,0.114,0.145,0.247,0.139,0.397
	s-0.066,0.276-0.181,0.373c-0.042,0.054-0.097,0.097-0.163,0.12c-0.066,0.024-0.133,0.03-0.204,0.03
	c-0.072,0-0.145-0.013-0.217-0.042c-0.072-0.03-0.139-0.072-0.192-0.127l-6.513-7.12c-0.729,0.584-1.535,1.035-2.414,1.343
	c-0.879,0.307-1.788,0.463-2.733,0.463c-1.101,0-2.148-0.205-3.147-0.62c-1-0.415-1.896-1.005-2.679-1.781
	c-0.771-0.788-1.366-1.679-1.781-2.679c-0.416-0.999-0.62-2.052-0.62-3.153c0-1.102,0.205-2.149,0.62-3.148
	c0.415-0.999,1.005-1.884,1.781-2.66C3.44,1.881,4.331,1.285,5.33,0.87c0.999-0.415,2.046-0.62,3.147-0.62
	c1.102,0,2.149,0.205,3.148,0.62c1,0.416,1.896,1.018,2.679,1.8c0.77,0.771,1.365,1.655,1.781,2.66c0.415,1,0.619,2.053,0.619,3.148
	c0,1.071-0.198,2.094-0.59,3.075c-0.391,0.981-0.95,1.848-1.685,2.606L20.955,21.274z"/>
</svg>
