<?xml version="1.0" encoding="utf-8"?>
<!-- Generator: Adobe Illustrator 16.0.0, SVG Export Plug-In . SVG Version: 6.00 Build 0)  -->
<!DOCTYPE svg PUBLIC "-//W3C//DTD SVG 1.1//EN" "http://www.w3.org/Graphics/SVG/1.1/DTD/svg11.dtd">
<svg version="1.1" id="Layer_1" xmlns="http://www.w3.org/2000/svg" xmlns:xlink="http://www.w3.org/1999/xlink" x="0px" y="0px"
	 width="79.176px" height="69.417px" viewBox="0 0 79.176 69.417" enable-background="new 0 0 79.176 69.417" xml:space="preserve">
<path fill="#FFFFFF" d="M14.508,28.768l13.664,13.426l38.975-22.457L57.76,3.814L14.508,28.768z M4.17,34.708l13.664,13.427
	l7.605-4.396L11.775,30.312L4.17,34.708z M41.955,53.719c-2.494,0-4.396,2.021-4.396,4.516c0,2.496,2.021,4.516,4.396,4.516
	c2.496,0,4.516-2.02,4.516-4.516C46.471,55.741,44.332,53.719,41.955,53.719z M77.602,69.167c-0.83,0-1.426-0.713-1.426-1.426v-8.08
	H49.203l-0.236,0.595c-0.951,3.089-3.803,5.347-7.129,5.347c-4.041,0-7.367-3.326-7.367-7.367c0-3.207,2.139-6.178,5.346-7.129
	l0.594-0.238V38.51l-22.1,12.715c-0.238,0.119-0.477,0.237-0.713,0.237c-0.357,0-0.713-0.118-1.07-0.476L0.725,35.421
	c-0.357-0.238-0.475-0.713-0.475-1.188c0-0.476,0.355-0.832,0.713-1.069L57.641,0.487c0.119-0.119,0.475-0.237,0.713-0.237
	c0.475,0,1.068,0.237,1.307,0.713l10.693,18.536c0.357,0.713,0.119,1.664-0.594,2.02l-26.379,15.21v14.139l0.596,0.238
	c2.375,0.713,4.277,2.613,4.99,4.99l0.236,0.594h26.855v-8.08c0-0.831,0.713-1.426,1.426-1.426s1.426,0.713,1.426,1.426v19.012
	C79.029,68.573,78.434,69.167,77.602,69.167z"/>
<path fill="none" stroke="#FFFFFF" stroke-width="0.5" d="M14.508,28.768l13.664,13.426l38.975-22.457L57.76,3.814L14.508,28.768z
	 M4.17,34.708l13.664,13.427l7.605-4.396L11.775,30.312L4.17,34.708z M41.955,53.719c-2.494,0-4.396,2.021-4.396,4.516
	c0,2.496,2.021,4.516,4.396,4.516c2.496,0,4.516-2.02,4.516-4.516C46.471,55.741,44.332,53.719,41.955,53.719z M77.602,69.167
	c-0.83,0-1.426-0.713-1.426-1.426v-8.08H49.203l-0.236,0.595c-0.951,3.089-3.803,5.347-7.129,5.347
	c-4.041,0-7.367-3.326-7.367-7.367c0-3.207,2.139-6.178,5.346-7.129l0.594-0.238V38.51l-22.1,12.715
	c-0.238,0.119-0.477,0.237-0.713,0.237c-0.357,0-0.713-0.118-1.07-0.476L0.725,35.421c-0.357-0.238-0.475-0.713-0.475-1.188
	c0-0.476,0.355-0.832,0.713-1.069L57.641,0.487c0.119-0.119,0.475-0.237,0.713-0.237c0.475,0,1.068,0.237,1.307,0.713l10.693,18.536
	c0.357,0.713,0.119,1.664-0.594,2.02l-26.379,15.21v14.139l0.596,0.238c2.375,0.713,4.277,2.613,4.99,4.99l0.236,0.594h26.855v-8.08
	c0-0.831,0.713-1.426,1.426-1.426s1.426,0.713,1.426,1.426v19.012C79.029,68.573,78.434,69.167,77.602,69.167z"/>
</svg>
