<?xml version="1.0" encoding="utf-8"?>
<!-- Generator: Adobe Illustrator 16.0.0, SVG Export Plug-In . SVG Version: 6.00 Build 0)  -->
<!DOCTYPE svg PUBLIC "-//W3C//DTD SVG 1.1//EN" "http://www.w3.org/Graphics/SVG/1.1/DTD/svg11.dtd">
<svg version="1.1" id="Layer_1" xmlns="http://www.w3.org/2000/svg" xmlns:xlink="http://www.w3.org/1999/xlink" x="0px" y="0px"
	 width="21.453px" height="22.585px" viewBox="0 0 21.453 22.585" enable-background="new 0 0 21.453 22.585" xml:space="preserve">
<path fill="none" stroke="#FFFFFF" stroke-width="0.1" d="M-48.244-88.467c-0.617,0.272-1.158,0.637-1.619,1.091
	c-0.464,0.455-0.828,0.992-1.091,1.61s-0.396,1.28-0.396,1.984c0,0.692,0.133,1.345,0.396,1.963s0.627,1.159,1.091,1.62
	c0.464,0.463,1.005,0.829,1.619,1.091c0.615,0.263,1.271,0.396,1.963,0.396c0.705,0,1.366-0.133,1.984-0.396s1.159-0.628,1.62-1.091
	c0.463-0.463,0.828-1.004,1.091-1.62s0.396-1.271,0.396-1.963c0-0.705-0.133-1.366-0.396-1.984s-0.628-1.152-1.091-1.61
	c-0.464-0.454-1.005-0.819-1.62-1.091c-0.618-0.272-1.279-0.408-1.984-0.408C-46.974-88.875-47.629-88.739-48.244-88.467z
	 M-48.686-78.069c-0.751-0.324-1.409-0.763-1.976-1.323c-0.565-0.56-1.011-1.218-1.335-1.975s-0.485-1.561-0.485-2.414
	c0-0.853,0.161-1.656,0.485-2.414c0.324-0.757,0.77-1.415,1.335-1.975c0.566-0.56,1.225-1.005,1.976-1.335
	C-47.938-89.833-47.134-90-46.281-90c0.869,0,1.676,0.167,2.427,0.498c0.751,0.331,1.406,0.775,1.975,1.335
	c0.565,0.56,1.011,1.218,1.336,1.975c0.324,0.757,0.484,1.561,0.484,2.414c0,0.854-0.16,1.657-0.484,2.414
	c-0.325,0.757-0.771,1.416-1.336,1.976c-0.565,0.559-1.224,1.001-1.975,1.322c-0.751,0.325-1.558,0.485-2.427,0.485
	C-47.134-77.584-47.938-77.745-48.686-78.069z M-49.028-75.114c-0.848,0.133-1.626,0.331-2.337,0.597
	c-0.714,0.266-1.345,0.587-1.898,0.971c-0.55,0.383-1.025,0.831-1.421,1.344c-0.575,0.764-0.915,1.472-1.026,2.117
	c-0.111,0.646-0.167,0.977-0.167,0.992c0,0.148,0.056,0.275,0.167,0.387s0.247,0.167,0.408,0.167h18.06
	c0.16,0,0.297-0.056,0.408-0.167c0.11-0.111,0.167-0.247,0.167-0.408c-0.22-1.295-0.625-2.324-1.212-3.088
	c-0.384-0.513-0.854-0.961-1.413-1.344c-0.559-0.384-1.189-0.705-1.897-0.971s-1.483-0.464-2.337-0.597
	c-0.853-0.133-1.771-0.198-2.757-0.198C-47.267-75.313-48.182-75.247-49.028-75.114z M-55.303-67.418
	c-0.471,0-0.872-0.167-1.203-0.498C-56.833-68.243-57-68.646-57-69.115c0-0.031,0.059-0.43,0.176-1.202
	c0.118-0.772,0.522-1.613,1.212-2.525c0.396-0.528,0.868-1.005,1.413-1.422c0.543-0.42,1.152-0.775,1.829-1.069
	c0.822-0.367,1.746-0.643,2.767-0.828c1.023-0.183,2.13-0.275,3.319-0.275c1.205,0,2.318,0.093,3.341,0.275
	c1.023,0.186,1.944,0.461,2.767,0.828c0.677,0.294,1.286,0.649,1.83,1.069c0.544,0.421,1.014,0.894,1.412,1.422
	c0.692,0.912,1.095,1.753,1.212,2.525s0.176,1.171,0.176,1.202c0,0.47-0.166,0.872-0.497,1.203c-0.331,0.33-0.732,0.497-1.202,0.497
	h-18.057V-67.418z"/>
<path fill="#FFFFFF" d="M8.756,1.533C8.139,1.805,7.598,2.17,7.137,2.624c-0.464,0.454-0.828,0.992-1.091,1.61
	S5.65,5.514,5.65,6.219c0,0.692,0.133,1.345,0.396,1.963s0.627,1.159,1.091,1.619c0.464,0.464,1.005,0.829,1.619,1.092
	c0.615,0.263,1.271,0.396,1.963,0.396c0.705,0,1.366-0.133,1.984-0.396s1.159-0.628,1.62-1.092c0.463-0.463,0.828-1.004,1.091-1.619
	s0.396-1.271,0.396-1.963c0-0.705-0.133-1.366-0.396-1.984s-0.628-1.152-1.091-1.61c-0.464-0.454-1.005-0.819-1.62-1.091
	c-0.618-0.271-1.279-0.408-1.984-0.408C10.026,1.125,9.371,1.262,8.756,1.533z M8.314,11.931c-0.751-0.324-1.409-0.763-1.976-1.323
	c-0.565-0.559-1.011-1.217-1.335-1.975S4.519,7.072,4.519,6.219S4.68,4.563,5.004,3.805C5.328,3.048,5.773,2.39,6.339,1.83
	c0.566-0.56,1.225-1.005,1.976-1.336C9.063,0.167,9.866,0,10.719,0c0.869,0,1.676,0.167,2.427,0.498
	c0.751,0.33,1.406,0.775,1.975,1.335c0.565,0.56,1.011,1.218,1.336,1.976c0.324,0.757,0.484,1.561,0.484,2.413
	c0,0.854-0.16,1.657-0.484,2.414c-0.325,0.757-0.771,1.416-1.336,1.976c-0.565,0.559-1.224,1.001-1.975,1.322
	c-0.751,0.324-1.558,0.485-2.427,0.485C9.866,12.416,9.063,12.256,8.314,11.931z M7.972,14.886
	c-0.848,0.133-1.626,0.331-2.337,0.597c-0.714,0.266-1.345,0.587-1.898,0.971c-0.55,0.383-1.025,0.831-1.421,1.344
	C1.74,18.561,1.4,19.269,1.289,19.914c-0.111,0.646-0.167,0.977-0.167,0.992c0,0.148,0.056,0.275,0.167,0.387
	s0.247,0.167,0.408,0.167h18.06c0.16,0,0.297-0.056,0.408-0.167c0.11-0.111,0.167-0.247,0.167-0.408
	c-0.22-1.295-0.625-2.324-1.212-3.088c-0.384-0.513-0.854-0.961-1.413-1.344c-0.559-0.384-1.189-0.705-1.897-0.971
	s-1.483-0.464-2.337-0.597c-0.853-0.133-1.771-0.198-2.757-0.198C9.733,14.688,8.818,14.753,7.972,14.886z M1.697,22.582
	c-0.471,0-0.872-0.167-1.203-0.498C0.167,21.757,0,21.354,0,20.885c0-0.031,0.059-0.43,0.176-1.202
	c0.118-0.772,0.522-1.613,1.212-2.525c0.396-0.528,0.868-1.005,1.413-1.422c0.543-0.42,1.152-0.775,1.829-1.069
	c0.822-0.367,1.746-0.643,2.767-0.828c1.023-0.183,2.13-0.275,3.319-0.275c1.205,0,2.318,0.093,3.341,0.275
	c1.023,0.186,1.944,0.461,2.767,0.828c0.677,0.294,1.286,0.649,1.83,1.069c0.544,0.421,1.014,0.894,1.412,1.422
	c0.692,0.912,1.095,1.753,1.212,2.525s0.176,1.171,0.176,1.202c0,0.47-0.166,0.872-0.497,1.203c-0.331,0.33-0.732,0.497-1.202,0.497
	H1.697V22.582z"/>
</svg>
