<?xml version="1.0" encoding="utf-8"?>
<!-- Generator: Adobe Illustrator 16.0.0, SVG Export Plug-In . SVG Version: 6.00 Build 0)  -->
<!DOCTYPE svg PUBLIC "-//W3C//DTD SVG 1.1//EN" "http://www.w3.org/Graphics/SVG/1.1/DTD/svg11.dtd">
<svg version="1.1" id="Layer_1" xmlns="http://www.w3.org/2000/svg" xmlns:xlink="http://www.w3.org/1999/xlink" x="0px" y="0px"
	 width="69.803px" height="59.281px" viewBox="0 0 69.803 59.281" enable-background="new 0 0 69.803 59.281" xml:space="preserve">
<path fill="#FFFFFF" d="M31.463,45.372v-5.287c0-0.461-0.154-0.872-0.514-1.18c-0.359-0.309-0.77-0.514-1.283-0.514h-5.235V31.36
	h5.235c0.514,0,0.924-0.154,1.283-0.514s0.514-0.718,0.514-1.18v-5.235h6.979v5.235c0,0.462,0.154,0.873,0.514,1.18
	c0.359,0.359,0.77,0.514,1.283,0.514h5.235v7.031h-5.287c-0.513,0-0.924,0.154-1.283,0.514c-0.358,0.359-0.513,0.719-0.513,1.18
	v5.236h-6.929V45.372z M24.431,5.184v5.235h20.992V5.184c0-0.462-0.154-0.873-0.513-1.181C44.551,3.696,44.14,3.49,43.627,3.49
	H26.176c-0.513,0-0.924,0.154-1.283,0.513S24.431,4.722,24.431,5.184z M40.188,48.81c0.462,0,0.873-0.153,1.181-0.513
	s0.514-0.719,0.514-1.181v-5.235h5.234c0.514,0,0.924-0.154,1.283-0.514s0.514-0.77,0.514-1.283V29.666
	c0-0.513-0.154-0.924-0.514-1.283c-0.359-0.359-0.77-0.513-1.283-0.513h-5.234v-5.235c0-0.462-0.154-0.872-0.514-1.18
	s-0.719-0.513-1.181-0.513H29.666c-0.462,0-0.872,0.154-1.181,0.513c-0.359,0.359-0.513,0.718-0.513,1.18v5.235h-5.235
	c-0.514,0-0.924,0.154-1.283,0.513c-0.359,0.359-0.514,0.77-0.514,1.283v10.418c0,0.514,0.154,0.924,0.514,1.283
	s0.77,0.514,1.283,0.514h5.235v5.235c0,0.462,0.153,0.872,0.513,1.181c0.359,0.359,0.719,0.513,1.181,0.513H40.188z M66.363,54.096
	V15.706c0-0.513-0.153-0.924-0.513-1.283s-0.771-0.513-1.283-0.513H5.235c-0.514,0-0.924,0.154-1.283,0.513s-0.513,0.77-0.513,1.283
	v38.391c0,0.514,0.153,0.924,0.513,1.283s0.77,0.514,1.283,0.514h59.332c0.513,0,0.924-0.154,1.283-0.514
	S66.363,54.61,66.363,54.096z M64.567,10.419c1.437,0,2.669,0.513,3.695,1.54c1.026,1.026,1.54,2.258,1.54,3.695v38.391
	c0,1.438-0.514,2.669-1.54,3.695s-2.259,1.54-3.695,1.54H5.235c-1.438,0-2.669-0.514-3.695-1.54S0,55.483,0,54.045v-38.34
	c0-1.437,0.514-2.669,1.54-3.695s2.258-1.54,3.695-1.54H20.94V5.184c0-1.386,0.514-2.618,1.54-3.645C23.507,0.513,24.739,0,26.176,0
	h17.451c1.437,0,2.669,0.513,3.695,1.54c1.026,1.027,1.539,2.259,1.539,3.645v5.235H64.567z"/>
</svg>
