<?xml version="1.0" encoding="utf-8"?>
<!-- Generator: Adobe Illustrator 16.0.0, SVG Export Plug-In . SVG Version: 6.00 Build 0)  -->
<!DOCTYPE svg PUBLIC "-//W3C//DTD SVG 1.1//EN" "http://www.w3.org/Graphics/SVG/1.1/DTD/svg11.dtd">
<svg version="1.1" id="Layer_1" xmlns="http://www.w3.org/2000/svg" xmlns:xlink="http://www.w3.org/1999/xlink" x="0px" y="0px"
	 width="69.803px" height="59.28px" viewBox="0 0 69.803 59.28" enable-background="new 0 0 69.803 59.28" xml:space="preserve">
<path fill="#FFFFFF" d="M31.463,45.372v-5.287c0-0.462-0.154-0.873-0.514-1.18c-0.359-0.309-0.77-0.514-1.283-0.514H24.43V31.36
	h5.236c0.514,0,0.924-0.154,1.283-0.514s0.514-0.719,0.514-1.181v-5.235h6.979v5.235c0,0.462,0.154,0.873,0.514,1.181
	c0.359,0.359,0.77,0.514,1.283,0.514h5.236v7.031h-5.287c-0.514,0-0.924,0.154-1.283,0.514c-0.359,0.358-0.514,0.718-0.514,1.18
	v5.235h-6.928V45.372z M24.43,5.184v5.235h20.992V5.184c0-0.462-0.154-0.873-0.512-1.181c-0.359-0.308-0.771-0.513-1.283-0.513
	H26.176c-0.514,0-0.924,0.154-1.283,0.513S24.43,4.722,24.43,5.184z M40.188,48.81c0.461,0,0.873-0.153,1.18-0.512
	c0.309-0.359,0.514-0.719,0.514-1.182v-5.234h5.234c0.514,0,0.924-0.154,1.283-0.514s0.514-0.77,0.514-1.283V29.666
	c0-0.513-0.154-0.924-0.514-1.283c-0.359-0.359-0.77-0.513-1.283-0.513h-5.234v-5.235c0-0.462-0.154-0.872-0.514-1.18
	s-0.719-0.513-1.18-0.513H29.666c-0.463,0-0.873,0.154-1.182,0.513c-0.359,0.359-0.512,0.718-0.512,1.18v5.235h-5.236
	c-0.514,0-0.924,0.154-1.283,0.513c-0.359,0.359-0.514,0.77-0.514,1.283v10.419c0,0.514,0.154,0.924,0.514,1.283
	s0.77,0.514,1.283,0.514h5.236v5.234c0,0.463,0.152,0.873,0.512,1.182c0.359,0.358,0.719,0.512,1.182,0.512H40.188z M66.363,54.097
	V15.706c0-0.513-0.154-0.924-0.514-1.283s-0.77-0.513-1.283-0.513H5.234c-0.514,0-0.924,0.154-1.283,0.513s-0.512,0.77-0.512,1.283
	v38.391c0,0.514,0.152,0.924,0.512,1.283s0.77,0.514,1.283,0.514h59.332c0.514,0,0.924-0.154,1.283-0.514
	S66.363,54.61,66.363,54.097z M64.566,10.419c1.438,0,2.67,0.513,3.695,1.54c1.027,1.026,1.541,2.258,1.541,3.695v38.392
	c0,1.437-0.514,2.668-1.541,3.695c-1.025,1.025-2.258,1.539-3.695,1.539H5.234c-1.438,0-2.668-0.514-3.695-1.539
	C0.514,56.714,0,55.482,0,54.046v-38.34c0-1.437,0.514-2.669,1.539-3.695c1.027-1.026,2.258-1.54,3.695-1.54h15.705V5.184
	c0-1.386,0.514-2.618,1.541-3.645C23.506,0.513,24.738,0,26.176,0h17.451c1.436,0,2.668,0.513,3.695,1.54
	c1.025,1.027,1.539,2.259,1.539,3.645v5.235H64.566z"/>
</svg>
