<?xml version="1.0" encoding="utf-8"?>
<!-- Generator: Adobe Illustrator 16.0.0, SVG Export Plug-In . SVG Version: 6.00 Build 0)  -->
<!DOCTYPE svg PUBLIC "-//W3C//DTD SVG 1.1//EN" "http://www.w3.org/Graphics/SVG/1.1/DTD/svg11.dtd">
<svg version="1.1" id="Layer_1" xmlns="http://www.w3.org/2000/svg" xmlns:xlink="http://www.w3.org/1999/xlink" x="0px" y="0px"
	 width="30.816px" height="23.112px" viewBox="0 0 30.816 23.112" enable-background="new 0 0 30.816 23.112" xml:space="preserve">
<path fill="#FFFFFF" d="M25.126,19.952c-0.103-0.043-0.182-0.091-0.242-0.151c-0.079-0.08-0.14-0.164-0.182-0.256
	c-0.043-0.091-0.062-0.188-0.062-0.285c0-0.097,0.019-0.199,0.062-0.303c0.042-0.104,0.103-0.182,0.182-0.242
	c0.061-0.079,0.14-0.141,0.242-0.183c0.104-0.042,0.2-0.061,0.304-0.061s0.194,0.019,0.285,0.061s0.176,0.104,0.255,0.183
	c0.061,0.061,0.109,0.139,0.151,0.242c0.043,0.104,0.061,0.2,0.061,0.303c0,0.104-0.018,0.194-0.061,0.285
	c-0.042,0.092-0.091,0.176-0.151,0.256c-0.079,0.061-0.164,0.108-0.255,0.151c-0.091,0.042-0.188,0.061-0.285,0.061
	C25.326,20.013,25.229,19.994,25.126,19.952z M21.802,7.929c-0.151,0.151-0.225,0.327-0.225,0.527v12.339
	c0,0.219,0.073,0.406,0.225,0.559c0.152,0.151,0.328,0.225,0.528,0.225h6.169c0.219,0,0.406-0.073,0.559-0.225
	c0.151-0.152,0.224-0.334,0.224-0.559V8.456c0-0.2-0.072-0.376-0.224-0.527c-0.152-0.152-0.334-0.225-0.559-0.225H22.33
	C22.13,7.704,21.954,7.777,21.802,7.929z M22.33,23.112c-0.625,0-1.159-0.225-1.607-0.68c-0.449-0.454-0.68-1.001-0.68-1.638V8.456
	c0-0.625,0.225-1.158,0.68-1.607c0.454-0.449,0.988-0.679,1.607-0.679h6.169c0.644,0,1.189,0.224,1.638,0.679
	c0.449,0.455,0.68,0.989,0.68,1.607v12.339c0,0.643-0.225,1.189-0.68,1.638c-0.455,0.449-1.001,0.68-1.638,0.68H22.33z
	 M5.387,16.943c-0.643,0-1.188-0.225-1.638-0.68s-0.68-1.001-0.68-1.638V2.317c0-0.643,0.225-1.189,0.68-1.638
	C4.204,0.23,4.744,0,5.387,0H25.43c0.643,0,1.189,0.225,1.638,0.68c0.449,0.455,0.68,1,0.68,1.638v1.535
	c0,0.2-0.073,0.376-0.225,0.528c-0.151,0.151-0.334,0.225-0.558,0.225c-0.219,0-0.407-0.073-0.559-0.225
	c-0.151-0.152-0.225-0.328-0.225-0.528V2.317c0-0.219-0.072-0.406-0.225-0.558c-0.151-0.152-0.327-0.225-0.527-0.225H5.387
	c-0.2,0-0.376,0.073-0.527,0.225C4.707,1.911,4.635,2.093,4.635,2.317v12.309c0,0.218,0.072,0.406,0.225,0.558
	c0.151,0.152,0.327,0.225,0.527,0.225h12.339c0.2,0,0.376,0.072,0.527,0.225c0.152,0.151,0.225,0.327,0.225,0.527
	c0,0.219-0.072,0.406-0.225,0.559c-0.151,0.151-0.327,0.225-0.527,0.225H5.387z M2.317,23.112c-0.644,0-1.189-0.225-1.638-0.68
	C0.23,21.979,0,21.438,0,20.795V19.26c0-0.218,0.072-0.406,0.225-0.558c0.151-0.151,0.333-0.225,0.558-0.225h16.943
	c0.2,0,0.376,0.073,0.527,0.225c0.152,0.151,0.225,0.334,0.225,0.558c0,0.201-0.072,0.377-0.225,0.528
	c-0.151,0.151-0.327,0.225-0.527,0.225H1.535v0.782c0,0.219,0.072,0.406,0.224,0.559c0.152,0.151,0.334,0.225,0.559,0.225h15.408
	c0.2,0,0.376,0.072,0.527,0.224c0.152,0.151,0.225,0.328,0.225,0.528c0,0.218-0.072,0.406-0.225,0.558
	c-0.151,0.151-0.327,0.225-0.527,0.225H2.317z"/>
</svg>
