<?xml version="1.0" encoding="utf-8"?>
<!-- Generator: Adobe Illustrator 16.0.0, SVG Export Plug-In . SVG Version: 6.00 Build 0)  -->
<!DOCTYPE svg PUBLIC "-//W3C//DTD SVG 1.1//EN" "http://www.w3.org/Graphics/SVG/1.1/DTD/svg11.dtd">
<svg version="1.1" id="Layer_1" xmlns="http://www.w3.org/2000/svg" xmlns:xlink="http://www.w3.org/1999/xlink" x="0px" y="0px"
	 width="13.9px" height="9.922px" viewBox="0 0 13.9 9.922" enable-background="new 0 0 13.9 9.922" xml:space="preserve">
<path fill="#266397" stroke="#266397" stroke-width="0.5" d="M0.347,5.211C0.276,5.141,0.25,5.062,0.25,4.965
	c0-0.096,0.035-0.184,0.097-0.263l4.347-4.338c0.035-0.035,0.079-0.07,0.123-0.088C4.86,0.259,4.904,0.25,4.948,0.25
	s0.097,0.009,0.141,0.026S5.176,0.32,5.203,0.364c0.079,0.07,0.114,0.149,0.114,0.255c0,0.104-0.035,0.184-0.114,0.254L1.479,4.605
	h11.801c0.105,0,0.193,0.035,0.264,0.105s0.105,0.158,0.105,0.245c0,0.105-0.035,0.193-0.105,0.264s-0.158,0.105-0.264,0.105H1.479
	L5.22,9.049c0.07,0.078,0.097,0.166,0.097,0.263S5.282,9.496,5.22,9.575C5.141,9.637,5.053,9.672,4.957,9.672
	S4.772,9.637,4.693,9.575L0.347,5.211z"/>
</svg>
