<?xml version="1.0" encoding="utf-8"?>
<!-- Generator: Adobe Illustrator 16.0.0, SVG Export Plug-In . SVG Version: 6.00 Build 0)  -->
<!DOCTYPE svg PUBLIC "-//W3C//DTD SVG 1.1//EN" "http://www.w3.org/Graphics/SVG/1.1/DTD/svg11.dtd">
<svg version="1.1" id="Layer_1" xmlns="http://www.w3.org/2000/svg" xmlns:xlink="http://www.w3.org/1999/xlink" x="0px" y="0px"
	 width="13.9px" height="9.922px" viewBox="0 0 13.9 9.922" enable-background="new 0 0 13.9 9.922" xml:space="preserve">
<path fill="#266397" stroke="#266397" stroke-width="0.5" d="M13.552,5.211c0.07-0.07,0.097-0.149,0.097-0.246
	c0-0.096-0.035-0.184-0.097-0.263L9.206,0.364C9.17,0.329,9.126,0.294,9.083,0.276C9.04,0.259,8.996,0.25,8.952,0.25
	S8.855,0.259,8.811,0.276S8.723,0.32,8.697,0.364c-0.079,0.07-0.114,0.149-0.114,0.255c0,0.104,0.035,0.184,0.114,0.254l3.723,3.732
	H0.619c-0.105,0-0.193,0.035-0.264,0.105S0.25,4.869,0.25,4.956c0,0.105,0.035,0.193,0.105,0.264s0.158,0.105,0.264,0.105h11.801
	l-3.74,3.724c-0.07,0.078-0.097,0.166-0.097,0.263s0.035,0.185,0.097,0.264c0.079,0.062,0.167,0.097,0.264,0.097
	s0.184-0.035,0.263-0.097L13.552,5.211z"/>
</svg>
