<?xml version="1.0" encoding="utf-8"?>
<!-- Generator: Adobe Illustrator 16.0.0, SVG Export Plug-In . SVG Version: 6.00 Build 0)  -->
<!DOCTYPE svg PUBLIC "-//W3C//DTD SVG 1.1//EN" "http://www.w3.org/Graphics/SVG/1.1/DTD/svg11.dtd">
<svg version="1.1" id="Layer_1" xmlns="http://www.w3.org/2000/svg" xmlns:xlink="http://www.w3.org/1999/xlink" x="0px" y="0px"
	 width="24.729px" height="12.954px" viewBox="0 0 24.729 12.954" enable-background="new 0 0 24.729 12.954" xml:space="preserve">
<path fill="#266397" d="M960.365,3515.767l1.412,2.856l3.298,0.529l-2.326,2.179l0.53,3.269l-2.826-1.502l-3.003,1.502l0.56-3.121
	l-2.355-2.326l3.18-0.441L960.365,3515.767z M950.649,3514c0,1.473-1.178,2.65-2.649,2.65v7.654c1.472,0,2.649,1.178,2.649,2.649
	h19.431c0-1.472,1.178-2.649,2.649-2.649v-7.654c-1.472,0-2.649-1.178-2.649-2.65H950.649z"/>
<path fill="#266397" d="M12.365,1.767l1.412,2.856l3.298,0.529l-2.326,2.179l0.53,3.269l-2.826-1.502L9.45,10.6l0.56-3.121
	L7.654,5.152l3.18-0.441L12.365,1.767z M2.649,0c0,1.473-1.178,2.65-2.649,2.65v7.654c1.472,0,2.649,1.178,2.649,2.649H22.08
	c0-1.472,1.178-2.649,2.649-2.649V2.65c-1.472,0-2.649-1.178-2.649-2.65H2.649z"/>
</svg>
