<?xml version="1.0" encoding="utf-8"?>
<!-- Generator: Adobe Illustrator 16.0.0, SVG Export Plug-In . SVG Version: 6.00 Build 0)  -->
<!DOCTYPE svg PUBLIC "-//W3C//DTD SVG 1.1//EN" "http://www.w3.org/Graphics/SVG/1.1/DTD/svg11.dtd">
<svg version="1.1" id="Layer_1" xmlns="http://www.w3.org/2000/svg" xmlns:xlink="http://www.w3.org/1999/xlink" x="0px" y="0px"
	 width="14.888px" height="10.428px" viewBox="0 0 14.888 10.428" enable-background="new 0 0 14.888 10.428" xml:space="preserve">
<path fill="#96989A" d="M12.652,8.192v0.738h0.76V8.192H12.652z M9.69,8.192v0.738h2.224V8.192H9.69z M7.444,8.192v0.738H8.93V8.192
	H7.444z M13.77,9.668c0.112,0,0.201-0.033,0.269-0.112c0.078-0.078,0.112-0.156,0.112-0.257V5.208H0.738v4.103
	c0,0.101,0.033,0.179,0.112,0.257c0.078,0.078,0.167,0.111,0.268,0.111H13.77V9.668z M14.15,2.224H0.738V4.46H14.15V2.224z
	 M1.118,0.737c-0.112,0-0.201,0.034-0.268,0.112C0.771,0.928,0.738,1.017,0.738,1.117v0.369H14.15V1.117
	c0-0.111-0.034-0.201-0.112-0.268c-0.078-0.078-0.167-0.112-0.269-0.112H1.118z M13.77,0c0.313,0,0.57,0.111,0.794,0.324
	c0.224,0.224,0.324,0.48,0.324,0.793v8.193c0,0.313-0.112,0.569-0.324,0.793c-0.224,0.224-0.48,0.324-0.794,0.324H1.118
	c-0.313,0-0.57-0.111-0.793-0.324C0.101,9.88,0,9.623,0,9.311V1.117c0-0.313,0.112-0.569,0.324-0.793C0.548,0.111,0.805,0,1.118,0
	H13.77z"/>
</svg>
