<?xml version="1.0" encoding="utf-8"?>
<!-- Generator: Adobe Illustrator 16.0.0, SVG Export Plug-In . SVG Version: 6.00 Build 0)  -->
<!DOCTYPE svg PUBLIC "-//W3C//DTD SVG 1.1//EN" "http://www.w3.org/Graphics/SVG/1.1/DTD/svg11.dtd">
<svg version="1.1" id="Layer_1" xmlns="http://www.w3.org/2000/svg" xmlns:xlink="http://www.w3.org/1999/xlink" x="0px" y="0px"
	 width="14.575px" height="13.131px" viewBox="0 0 14.575 13.131" enable-background="new 0 0 14.575 13.131" xml:space="preserve">
<path fill="#96989A" d="M12.037,10.932c0.098,0,0.175-0.033,0.252-0.109c0.076-0.077,0.109-0.153,0.109-0.252
	c0-0.109-0.033-0.197-0.109-0.263c-0.077-0.076-0.154-0.109-0.252-0.109h-0.723c-0.109,0-0.197,0.033-0.263,0.109
	c-0.077,0.077-0.109,0.164-0.109,0.263s0.032,0.175,0.109,0.252c0.077,0.076,0.164,0.109,0.263,0.109H12.037z M12.037,9.487
	c0.098,0,0.175-0.033,0.252-0.109c0.076-0.077,0.109-0.164,0.109-0.263s-0.033-0.175-0.109-0.252
	c-0.077-0.076-0.154-0.109-0.252-0.109h-0.723c-0.109,0-0.197,0.033-0.263,0.109c-0.077,0.077-0.109,0.153-0.109,0.252
	c0,0.109,0.032,0.196,0.109,0.263c0.077,0.076,0.164,0.109,0.263,0.109H12.037z M12.037,8.031c0.098,0,0.175-0.032,0.252-0.109
	c0.076-0.076,0.109-0.164,0.109-0.263c0-0.109-0.033-0.196-0.109-0.262c-0.077-0.077-0.154-0.109-0.252-0.109h-0.723
	c-0.109,0-0.197,0.032-0.263,0.109c-0.077,0.076-0.109,0.164-0.109,0.262c0,0.11,0.032,0.197,0.109,0.263
	c0.077,0.077,0.164,0.109,0.263,0.109H12.037z M12.037,6.565c0.098,0,0.175-0.033,0.252-0.109c0.076-0.076,0.109-0.153,0.109-0.252
	c0-0.109-0.033-0.196-0.109-0.263c-0.077-0.076-0.154-0.109-0.252-0.109h-0.723c-0.109,0-0.197,0.033-0.263,0.109
	c-0.077,0.077-0.109,0.164-0.109,0.263s0.032,0.176,0.109,0.252s0.164,0.109,0.263,0.109H12.037z M9.838,10.932
	c0.109,0,0.196-0.033,0.262-0.109c0.077-0.077,0.109-0.153,0.109-0.252c0-0.109-0.032-0.197-0.109-0.263
	c-0.076-0.076-0.164-0.109-0.262-0.109H9.115c-0.109,0-0.197,0.033-0.263,0.109c-0.077,0.077-0.109,0.164-0.109,0.263
	s0.032,0.175,0.109,0.252c0.077,0.076,0.164,0.109,0.263,0.109H9.838z M9.838,9.487c0.109,0,0.196-0.033,0.262-0.109
	c0.077-0.077,0.109-0.164,0.109-0.263S10.177,8.94,10.1,8.863c-0.076-0.076-0.164-0.109-0.262-0.109H9.115
	c-0.109,0-0.197,0.033-0.263,0.109C8.775,8.94,8.743,9.017,8.743,9.115c0,0.109,0.032,0.196,0.109,0.263
	C8.93,9.454,9.017,9.487,9.115,9.487H9.838z M9.838,8.031c0.109,0,0.196-0.032,0.262-0.109c0.077-0.076,0.109-0.164,0.109-0.263
	c0-0.109-0.032-0.196-0.109-0.262C10.023,7.32,9.936,7.288,9.838,7.288H9.115c-0.109,0-0.197,0.032-0.263,0.109
	C8.775,7.474,8.743,7.562,8.743,7.659c0,0.11,0.032,0.197,0.109,0.263C8.93,7.999,9.017,8.031,9.115,8.031H9.838z M9.838,6.565
	c0.109,0,0.196-0.033,0.262-0.109c0.077-0.076,0.109-0.153,0.109-0.252c0-0.109-0.032-0.196-0.109-0.263
	c-0.076-0.076-0.164-0.109-0.262-0.109H9.115c-0.109,0-0.197,0.033-0.263,0.109C8.775,6.019,8.743,6.105,8.743,6.204
	S8.775,6.38,8.853,6.456s0.164,0.109,0.263,0.109H9.838z M7.66,10.932c0.099,0,0.175-0.033,0.251-0.109
	c0.077-0.077,0.11-0.153,0.11-0.252c0-0.109-0.033-0.197-0.11-0.263c-0.076-0.076-0.153-0.109-0.251-0.109H6.916
	c-0.098,0-0.175,0.033-0.251,0.109c-0.077,0.077-0.109,0.164-0.109,0.263s0.033,0.175,0.109,0.252
	c0.077,0.076,0.153,0.109,0.251,0.109H7.66z M7.66,9.487c0.099,0,0.175-0.033,0.251-0.109c0.077-0.077,0.11-0.164,0.11-0.263
	S7.988,8.94,7.911,8.863C7.835,8.787,7.758,8.754,7.66,8.754H6.916c-0.098,0-0.175,0.033-0.251,0.109
	C6.587,8.94,6.555,9.017,6.555,9.115c0,0.109,0.033,0.196,0.109,0.263c0.077,0.076,0.153,0.109,0.251,0.109H7.66z M7.66,8.031
	c0.099,0,0.175-0.032,0.251-0.109c0.077-0.076,0.11-0.164,0.11-0.263c0-0.109-0.033-0.196-0.11-0.262
	C7.835,7.32,7.758,7.288,7.66,7.288H6.916c-0.098,0-0.175,0.032-0.251,0.109C6.587,7.474,6.555,7.562,6.555,7.659
	c0,0.11,0.033,0.197,0.109,0.263c0.077,0.077,0.153,0.109,0.251,0.109H7.66z M7.66,6.565c0.099,0,0.175-0.033,0.251-0.109
	c0.077-0.076,0.11-0.153,0.11-0.252c0-0.109-0.033-0.196-0.11-0.263C7.835,5.865,7.758,5.832,7.66,5.832H6.916
	c-0.098,0-0.175,0.033-0.251,0.109C6.587,6.019,6.555,6.105,6.555,6.204S6.587,6.38,6.664,6.456s0.153,0.109,0.251,0.109H7.66z
	 M5.471,10.932c0.109,0,0.197-0.033,0.263-0.109c0.077-0.077,0.109-0.153,0.109-0.252c0-0.109-0.033-0.197-0.109-0.263
	c-0.077-0.076-0.164-0.109-0.263-0.109H4.749c-0.109,0-0.197,0.033-0.263,0.109c-0.077,0.077-0.109,0.164-0.109,0.263
	s0.033,0.175,0.109,0.252c0.077,0.076,0.164,0.109,0.263,0.109H5.471z M5.471,9.487c0.109,0,0.197-0.033,0.263-0.109
	c0.077-0.077,0.109-0.164,0.109-0.263S5.811,8.94,5.734,8.863C5.657,8.787,5.57,8.754,5.471,8.754H4.749
	c-0.109,0-0.197,0.033-0.263,0.109C4.41,8.94,4.377,9.017,4.377,9.115c0,0.109,0.033,0.196,0.109,0.263
	C4.563,9.454,4.65,9.487,4.749,9.487H5.471z M5.471,8.031c0.109,0,0.197-0.032,0.263-0.109c0.077-0.076,0.109-0.164,0.109-0.263
	c0-0.109-0.033-0.196-0.109-0.262C5.657,7.32,5.57,7.288,5.471,7.288H4.749c-0.109,0-0.197,0.032-0.263,0.109
	C4.41,7.474,4.377,7.562,4.377,7.659c0,0.11,0.033,0.197,0.109,0.263C4.563,7.999,4.65,8.031,4.749,8.031H5.471z M5.471,6.565
	c0.109,0,0.197-0.033,0.263-0.109C5.811,6.38,5.843,6.303,5.843,6.204c0-0.109-0.033-0.196-0.109-0.263
	C5.657,5.865,5.57,5.832,5.471,5.832H4.749c-0.109,0-0.197,0.033-0.263,0.109C4.41,6.019,4.377,6.105,4.377,6.204
	S4.41,6.38,4.486,6.456S4.65,6.565,4.749,6.565H5.471z M3.272,10.932c0.109,0,0.197-0.033,0.262-0.109
	c0.077-0.077,0.109-0.153,0.109-0.252c0-0.109-0.033-0.197-0.109-0.263c-0.076-0.076-0.164-0.109-0.262-0.109H2.55
	c-0.099,0-0.175,0.033-0.252,0.109c-0.077,0.077-0.109,0.164-0.109,0.263s0.033,0.175,0.109,0.252
	c0.077,0.076,0.153,0.109,0.252,0.109H3.272z M3.272,9.487c0.109,0,0.197-0.033,0.262-0.109c0.077-0.077,0.109-0.164,0.109-0.263
	S3.611,8.94,3.534,8.863C3.458,8.787,3.37,8.754,3.272,8.754H2.55c-0.099,0-0.175,0.033-0.252,0.109
	C2.221,8.94,2.188,9.017,2.188,9.115c0,0.109,0.033,0.196,0.109,0.263C2.375,9.454,2.451,9.487,2.55,9.487H3.272z M3.272,8.031
	c0.109,0,0.197-0.032,0.262-0.109c0.077-0.076,0.109-0.164,0.109-0.263c0-0.109-0.033-0.196-0.109-0.262
	C3.458,7.32,3.37,7.288,3.272,7.288H2.55c-0.099,0-0.175,0.032-0.252,0.109C2.221,7.474,2.188,7.562,2.188,7.659
	c0,0.11,0.033,0.197,0.109,0.263C2.375,7.999,2.451,8.031,2.55,8.031H3.272z M13.48,12.397c0.109,0,0.197-0.032,0.264-0.109
	c0.076-0.076,0.109-0.164,0.109-0.263V4.388H0.722v7.649c0,0.109,0.033,0.196,0.109,0.262c0.077,0.077,0.164,0.11,0.263,0.11H13.48
	V12.397z M1.094,1.466c-0.109,0-0.197,0.033-0.263,0.109C0.755,1.652,0.722,1.729,0.722,1.827v1.827h13.131V1.827
	c0-0.099-0.033-0.175-0.109-0.252c-0.077-0.076-0.164-0.109-0.264-0.109h-1.826v1.095c0,0.099-0.033,0.175-0.109,0.252
	c-0.077,0.076-0.154,0.109-0.252,0.109c-0.109,0-0.197-0.033-0.264-0.109c-0.076-0.077-0.109-0.153-0.109-0.252V1.466H3.644v1.095
	c0,0.099-0.033,0.175-0.109,0.252C3.458,2.889,3.37,2.922,3.272,2.922c-0.099,0-0.175-0.033-0.252-0.109
	C2.943,2.735,2.911,2.659,2.911,2.561V1.466H1.094z M13.48,0.744c0.307,0,0.559,0.109,0.777,0.317
	c0.219,0.219,0.317,0.471,0.317,0.766v10.21c0,0.306-0.109,0.558-0.317,0.776c-0.219,0.219-0.471,0.317-0.777,0.317H1.094
	c-0.306,0-0.558-0.109-0.777-0.317C0.099,12.595,0,12.343,0,12.037V1.827C0,1.532,0.109,1.28,0.317,1.062
	c0.219-0.219,0.471-0.317,0.777-0.317h1.828V0.372c0-0.109,0.033-0.197,0.109-0.263C3.107,0.033,3.184,0,3.283,0
	c0.109,0,0.197,0.033,0.263,0.109c0.077,0.076,0.109,0.164,0.109,0.263v0.372h7.288V0.372c0-0.109,0.032-0.197,0.109-0.263
	C11.129,0.033,11.216,0,11.314,0s0.176,0.033,0.252,0.109s0.109,0.164,0.109,0.263v0.372H13.48z"/>
</svg>
