<?xml version="1.0" encoding="utf-8"?>
<!-- Generator: Adobe Illustrator 16.0.0, SVG Export Plug-In . SVG Version: 6.00 Build 0)  -->
<!DOCTYPE svg PUBLIC "-//W3C//DTD SVG 1.1//EN" "http://www.w3.org/Graphics/SVG/1.1/DTD/svg11.dtd">
<svg version="1.1" id="Layer_1" xmlns="http://www.w3.org/2000/svg" xmlns:xlink="http://www.w3.org/1999/xlink" x="0px" y="0px"
	 width="12.5px" height="16.344px" viewBox="0 0 12.5 16.344" enable-background="new 0 0 12.5 16.344" xml:space="preserve">
<path fill="#96989A" d="M2.876,4.321v1.444h6.748V4.321c0-0.925-0.332-1.72-0.982-2.385c-0.665-0.665-1.46-0.982-2.398-0.982
	c-0.925,0-1.72,0.332-2.385,0.982C3.208,2.602,2.876,3.396,2.876,4.321z M11.546,14.913V7.226c0-0.145-0.043-0.26-0.145-0.347
	c-0.101-0.102-0.217-0.145-0.347-0.145H1.431c-0.13,0-0.231,0.043-0.332,0.145C0.997,6.979,0.954,7.096,0.954,7.226v7.688
	c0,0.145,0.043,0.261,0.145,0.347c0.101,0.102,0.202,0.145,0.332,0.145h9.624c0.145,0,0.261-0.043,0.347-0.145
	C11.503,15.159,11.546,15.044,11.546,14.913z M11.055,5.766c0.405,0,0.737,0.145,1.026,0.42C12.37,6.474,12.5,6.807,12.5,7.211
	v7.688c0,0.404-0.145,0.736-0.419,1.025c-0.289,0.289-0.622,0.419-1.026,0.419H1.431c-0.391,0-0.723-0.145-1.012-0.419
	C0.13,15.636,0,15.304,0,14.899V7.226c0-0.404,0.145-0.737,0.419-1.026C0.708,5.91,1.04,5.78,1.431,5.78h0.491V4.335
	c0-0.606,0.115-1.17,0.332-1.69s0.535-0.982,0.925-1.373c0.405-0.404,0.867-0.708,1.388-0.939C5.087,0.102,5.65,0,6.243,0
	c0.606,0,1.17,0.116,1.69,0.332C8.454,0.549,8.916,0.867,9.32,1.257c0.391,0.391,0.709,0.854,0.926,1.373
	c0.217,0.521,0.332,1.084,0.332,1.691v1.444H11.055z"/>
</svg>
