<?xml version="1.0" encoding="utf-8"?>
<!-- Generator: Adobe Illustrator 16.0.0, SVG Export Plug-In . SVG Version: 6.00 Build 0)  -->
<!DOCTYPE svg PUBLIC "-//W3C//DTD SVG 1.1//EN" "http://www.w3.org/Graphics/SVG/1.1/DTD/svg11.dtd">
<svg version="1.1" id="Layer_1" xmlns="http://www.w3.org/2000/svg" xmlns:xlink="http://www.w3.org/1999/xlink" x="0px" y="0px"
	 width="14.888px" height="9.408px" viewBox="0 0 14.888 9.408" enable-background="new 0 0 14.888 9.408" xml:space="preserve">
<path fill="#96989A" d="M13.712,0.8H1.176c-0.012,0-0.023,0-0.035,0s-0.023,0-0.035,0l5.903,3.928
	c0.118,0.083,0.259,0.118,0.435,0.118s0.329-0.035,0.435-0.118L13.771,0.8c-0.012,0-0.023,0-0.035,0
	C13.735,0.8,13.724,0.8,13.712,0.8z M13.712,8.632c0.117,0,0.212-0.035,0.282-0.117c0.082-0.083,0.117-0.177,0.117-0.282V1.518
	L8.314,5.387c-0.118,0.082-0.259,0.141-0.4,0.188c-0.153,0.035-0.306,0.06-0.47,0.06c-0.153,0-0.306-0.024-0.447-0.06
	C6.833,5.527,6.703,5.469,6.585,5.387L0.776,1.518v6.715c0,0.117,0.035,0.212,0.117,0.282C0.976,8.597,1.07,8.632,1.176,8.632
	H13.712z M13.712,0c0.329,0,0.6,0.118,0.835,0.342c0.234,0.235,0.341,0.506,0.341,0.835v7.056c0,0.329-0.118,0.6-0.341,0.835
	c-0.235,0.235-0.506,0.341-0.835,0.341H1.176c-0.329,0-0.6-0.117-0.835-0.341C0.118,8.832,0,8.562,0,8.232V1.177
	c0-0.329,0.118-0.6,0.341-0.835C0.576,0.118,0.847,0,1.176,0H13.712z"/>
</svg>
