<?xml version="1.0" encoding="utf-8"?>
<!-- Generator: Adobe Illustrator 16.0.0, SVG Export Plug-In . SVG Version: 6.00 Build 0)  -->
<!DOCTYPE svg PUBLIC "-//W3C//DTD SVG 1.1//EN" "http://www.w3.org/Graphics/SVG/1.1/DTD/svg11.dtd">
<svg version="1.1" id="Layer_1" xmlns="http://www.w3.org/2000/svg" xmlns:xlink="http://www.w3.org/1999/xlink" x="0px" y="0px"
	 width="20.354px" height="38.673px" viewBox="0 0 20.354 38.673" enable-background="new 0 0 20.354 38.673" xml:space="preserve">
<path opacity="0.4941" fill="#FFFFFF" d="M0.678,38.588c-0.085-0.084-0.254-0.084-0.339-0.17C0.084,38.164,0,37.91,0,37.655
	s0.084-0.509,0.339-0.764l17.641-17.556L0.339,1.781C0.084,1.526,0,1.357,0,1.018c0-0.339,0.084-0.509,0.339-0.679
	C0.509,0.085,0.763,0,1.018,0c0.254,0,0.509,0.085,0.679,0.339L20.1,18.658c0.169,0.17,0.254,0.424,0.254,0.678
	c0,0.255-0.085,0.51-0.254,0.764L1.78,38.418c-0.084,0.086-0.254,0.17-0.339,0.17s-0.255,0.085-0.339,0.085
	C1.018,38.673,0.763,38.673,0.678,38.588z"/>
</svg>
