<?xml version="1.0" encoding="utf-8"?>
<!-- Generator: Adobe Illustrator 16.0.0, SVG Export Plug-In . SVG Version: 6.00 Build 0)  -->
<!DOCTYPE svg PUBLIC "-//W3C//DTD SVG 1.1//EN" "http://www.w3.org/Graphics/SVG/1.1/DTD/svg11.dtd">
<svg version="1.1" id="Layer_1" xmlns="http://www.w3.org/2000/svg" xmlns:xlink="http://www.w3.org/1999/xlink" x="0px" y="0px"
	 width="20.354px" height="38.673px" viewBox="0 0 20.354 38.673" enable-background="new 0 0 20.354 38.673" xml:space="preserve">
<path opacity="0.4941" fill="#FFFFFF" d="M19.676,38.588c0.085-0.084,0.254-0.084,0.339-0.17c0.255-0.254,0.339-0.508,0.339-0.763
	s-0.084-0.509-0.339-0.764L2.374,19.336L20.015,1.781c0.255-0.255,0.339-0.424,0.339-0.764c0-0.339-0.084-0.509-0.339-0.679
	C19.845,0.085,19.591,0,19.336,0c-0.254,0-0.509,0.085-0.679,0.339L0.254,18.658C0.085,18.828,0,19.082,0,19.336
	c0,0.255,0.085,0.51,0.254,0.764l18.319,18.318c0.084,0.086,0.254,0.17,0.339,0.17s0.255,0.085,0.339,0.085
	C19.336,38.673,19.591,38.673,19.676,38.588z"/>
</svg>
