<?xml version="1.0" encoding="utf-8"?>
<!-- Generator: Adobe Illustrator 16.0.0, SVG Export Plug-In . SVG Version: 6.00 Build 0)  -->
<!DOCTYPE svg PUBLIC "-//W3C//DTD SVG 1.1//EN" "http://www.w3.org/Graphics/SVG/1.1/DTD/svg11.dtd">
<svg version="1.1" id="Layer_1" xmlns="http://www.w3.org/2000/svg" xmlns:xlink="http://www.w3.org/1999/xlink" x="0px" y="0px"
	 width="68.271px" height="70.238px" viewBox="0 0 68.271 70.238" enable-background="new 0 0 68.271 70.238" xml:space="preserve">
<path fill="#347FC2" d="M59.538,55.271l-0.391,0.39l-1.48,11.459h-3.976l-2.495-6.626l-1.325,0.39
	c-3.274,1.014-8.341,1.716-12.395,1.716c-3.196,0-6.237-0.469-9.199-1.326l-1.326-0.39l-2.728,6.314h-4.288v-9.979l-0.546-0.468
	c-0.078-0.078-0.39-0.233-1.013-0.623c-10.68-6.471-13.175-9.043-13.72-10.057c-1.559-2.963-1.871-6.859-1.403-7.873
	c2.572,0,4.521-0.391,6.236-1.092l0.546-0.234l0.234-0.545c1.091-2.339,2.728-4.366,4.833-5.769l1.169-0.779l-0.702-1.248
	c-0.779-1.325-2.573-4.443-3.04-5.925c2.338,0.078,7.094,1.949,8.965,4.678l2.806,4.054l-0.078-6.236
	c4.054-1.949,8.731-2.962,13.33-2.962c14.891,0,27.986,9.433,27.986,20.268C65.462,47.085,63.357,51.685,59.538,55.271z
	 M37.477,19.099c-5.379,0-10.836,1.325-15.513,3.742l-0.546,0.233c-2.962-2.261-6.86-3.43-9.121-3.43
	c-1.169,0-2.027,0.312-2.573,0.936c-1.091,1.403-0.234,3.664,2.417,8.341c-1.871,1.481-3.43,3.43-4.521,5.613
	c-1.169,0.468-2.65,0.624-4.521,0.624H2.942c-0.936,0-1.793,0.468-2.261,1.326c-1.403,2.338-0.468,7.639,1.248,10.913
	c1.247,2.339,6.002,5.925,14.89,11.226l0.078,0.078V70.16h9.277l2.417-5.612c2.807,0.779,5.769,1.091,8.809,1.091
	c3.741,0,8.419-0.545,11.849-1.402l2.262,6.002h8.652l1.637-13.019c4.211-4.132,6.471-9.354,6.471-14.733
	C68.503,30.013,54.003,19.099,37.477,19.099z M17.753,34.223c-1.559,0-2.806,1.169-2.806,2.65c0,1.481,1.247,2.65,2.806,2.65
	s2.807-1.169,2.807-2.65C20.56,35.392,19.313,34.223,17.753,34.223z M30.46,17.384c-0.468-1.248-0.702-2.495-0.702-3.82
	c0-5.769,4.755-10.524,10.523-10.524c5.77,0,10.447,4.677,10.447,10.524c0,1.637-0.391,3.196-1.092,4.677l2.729,1.325
	c0.936-1.871,1.402-3.897,1.402-6.002C53.769,6.081,47.688,0,40.205,0c-7.484,0-13.486,6.081-13.486,13.564
	c0,1.715,0.312,3.352,0.935,4.911L30.46,17.384z"/>
</svg>
