<?xml version="1.0" encoding="utf-8"?>
<!-- Generator: Adobe Illustrator 16.0.0, SVG Export Plug-In . SVG Version: 6.00 Build 0)  -->
<!DOCTYPE svg PUBLIC "-//W3C//DTD SVG 1.1//EN" "http://www.w3.org/Graphics/SVG/1.1/DTD/svg11.dtd">
<svg version="1.1" id="Layer_1" xmlns="http://www.w3.org/2000/svg" xmlns:xlink="http://www.w3.org/1999/xlink" x="0px" y="0px"
	 width="92.624px" height="53.58px" viewBox="0 0 92.624 53.58" enable-background="new 0 0 92.624 53.58" xml:space="preserve">
<path fill="#347FC2" d="M74.563,14.405c-1.946,0-3.598,0.708-4.954,2.064s-2.123,3.067-2.123,5.013s0.707,3.598,2.063,4.954
	s3.067,2.064,4.954,2.064c1.888,0,3.598-0.708,4.954-2.064s2.064-3.067,2.064-4.954s-0.708-3.598-2.064-4.954
	S76.509,14.405,74.563,14.405z M74.563,32.098c-2.949,0-5.485-1.062-7.55-3.125c-2.063-2.064-3.066-4.542-3.066-7.491
	s1.062-5.485,3.126-7.549c2.064-2.064,4.601-3.125,7.549-3.125c2.949,0,5.485,1.062,7.55,3.125c2.063,2.064,3.008,4.601,3.008,7.549
	s-1.063,5.485-3.126,7.549C79.988,31.096,77.511,32.098,74.563,32.098z M76.332,53.33c-0.531,0-0.944-0.177-1.298-0.531
	c-0.354-0.354-0.472-0.767-0.472-1.238s0.177-0.885,0.53-1.238c0.354-0.354,0.767-0.531,1.298-0.531h10.557
	c0.531,0,0.944-0.177,1.298-0.53c0.354-0.354,0.531-0.767,0.531-1.298c0-0.236-0.649-1.77-1.888-4.6
	c-1.238-2.832-5.367-4.247-12.268-4.247c-0.295,0-0.53,0-0.825,0s-0.531,0-0.826,0.06c-0.53,0-0.943-0.178-1.297-0.473
	c-0.354-0.295-0.531-0.707-0.531-1.238c-0.059-0.472,0.118-0.885,0.413-1.238s0.767-0.531,1.238-0.531
	c0.295-0.059,0.648-0.059,0.943-0.059s0.59,0,0.944,0c1.945,0,3.715,0.177,5.366,0.472s3.186,0.767,4.542,1.356
	c1.12,0.531,2.123,1.121,3.066,1.77c0.943,0.707,1.711,1.475,2.359,2.418c1.18,1.533,1.828,2.949,2.064,4.306
	c0.235,1.356,0.295,2.005,0.295,2.063c0,1.475-0.531,2.713-1.534,3.775c-1.002,1.062-2.418,1.533-3.893,1.533H76.332z M38.763,6.855
	c-2.064,2.123-3.126,4.6-3.126,7.549c0,2.89,1.062,5.367,3.126,7.49c2.064,2.124,4.542,3.126,7.49,3.126
	c2.89,0,5.367-1.062,7.49-3.126c2.123-2.064,3.126-4.6,3.126-7.49c0-2.949-1.062-5.485-3.126-7.549s-4.541-3.067-7.49-3.067
	C43.304,3.789,40.827,4.791,38.763,6.855z M40.768,27.438c-1.71-0.708-3.185-1.71-4.482-3.008c-1.297-1.238-2.3-2.771-3.067-4.482
	s-1.121-3.539-1.121-5.485c0-2.005,0.354-3.834,1.121-5.544c0.708-1.71,1.77-3.185,3.067-4.482c1.297-1.298,2.772-2.3,4.482-3.067
	c1.71-0.767,3.539-1.121,5.485-1.121s3.774,0.354,5.485,1.121c1.71,0.767,3.243,1.769,4.481,3.067
	c1.239,1.297,2.241,2.772,3.008,4.482c0.708,1.71,1.121,3.539,1.121,5.544c0,1.946-0.354,3.774-1.121,5.484
	c-0.767,1.711-1.71,3.244-3.008,4.482c-1.238,1.239-2.771,2.241-4.481,3.008c-1.711,0.767-3.539,1.121-5.485,1.121
	C44.307,28.5,42.479,28.146,40.768,27.438z M25.493,49.261c0.354,0.354,0.767,0.53,1.297,0.53h38.926c0.53,0,0.943-0.177,1.297-0.53
	c0.354-0.354,0.531-0.767,0.531-1.298c0-0.059-0.118-0.707-0.354-1.946c-0.236-1.238-1.003-2.653-2.241-4.188
	c-1.711-2.005-4.129-3.598-7.313-4.659c-3.244-1.002-7.019-1.533-11.383-1.533s-8.139,0.531-11.324,1.592
	c-3.185,1.063-5.603,2.596-7.373,4.66c-1.238,1.533-2.005,2.89-2.241,4.188c-0.177,1.238-0.295,1.887-0.295,1.945
	C25.021,48.494,25.139,48.966,25.493,49.261z M26.79,53.33c-1.474,0-2.713-0.531-3.774-1.533c-1.062-1.003-1.533-2.301-1.533-3.775
	c0-0.117,0.118-1.002,0.413-2.653c0.295-1.71,1.239-3.539,2.89-5.544c0.943-1.121,2.005-2.123,3.244-3.066
	c1.238-0.944,2.654-1.711,4.188-2.301c1.946-0.767,4.069-1.356,6.37-1.77c2.3-0.412,4.895-0.59,7.608-0.59
	c2.713,0,5.25,0.178,7.608,0.59c2.359,0.413,4.482,1.003,6.37,1.77c1.592,0.59,3.008,1.356,4.246,2.301
	c1.238,0.943,2.359,1.945,3.303,3.066c1.593,2.005,2.536,3.893,2.831,5.544c0.295,1.71,0.413,2.595,0.413,2.653
	c0,1.475-0.531,2.713-1.533,3.775c-1.003,1.062-2.241,1.533-3.716,1.533H26.79z M12.989,16.469
	c-1.416,1.416-2.123,3.067-2.123,5.013s0.708,3.598,2.064,4.954c1.356,1.356,3.066,2.064,4.954,2.064
	c1.887,0,3.598-0.708,4.954-2.064s2.182-3.008,2.182-4.954s-0.708-3.598-2.064-4.954s-3.067-2.123-5.013-2.123
	S14.346,15.112,12.989,16.469z M10.395,29.031c-2.064-2.123-3.067-4.601-3.067-7.549s1.062-5.485,3.125-7.549
	c2.064-2.064,4.542-3.125,7.49-3.125c2.949,0,5.485,1.062,7.549,3.125c2.064,2.064,3.067,4.601,3.067,7.549
	s-1.062,5.485-3.126,7.549c-2.064,2.064-4.541,3.066-7.49,3.066C14.995,32.098,12.458,31.096,10.395,29.031z M5.558,53.33
	c-1.474,0-2.713-0.531-3.774-1.533c-1.062-1.003-1.534-2.301-1.534-3.775c0-0.059,0.118-0.707,0.295-2.063
	c0.236-1.356,0.885-2.772,2.064-4.306c0.648-0.943,1.416-1.711,2.359-2.418c0.944-0.708,1.946-1.298,3.067-1.77
	c1.356-0.59,2.89-1.062,4.542-1.356s3.479-0.472,5.367-0.472c0.295,0,0.649,0,0.944,0s0.59,0,0.944,0.059
	c0.531,0,0.943,0.178,1.238,0.531s0.472,0.767,0.413,1.238c0,0.531-0.177,0.943-0.531,1.238c-0.354,0.295-0.826,0.473-1.297,0.473
	c-0.354,0-0.59,0-0.885,0s-0.531,0-0.826,0c-6.9,0-11.029,1.415-12.267,4.246c-1.298,2.831-1.887,4.364-1.887,4.6
	c0,0.531,0.177,0.944,0.531,1.298c0.354,0.354,0.767,0.472,1.238,0.472h10.616c0.531,0,0.943,0.178,1.297,0.531
	s0.472,0.767,0.472,1.238c0,0.531-0.177,0.943-0.531,1.298c-0.354,0.354-0.767,0.472-1.238,0.472H5.558z"/>
<path fill="none" stroke="#FFFFFF" stroke-width="0.5" d="M74.563,14.405c-1.946,0-3.598,0.708-4.954,2.064
	s-2.123,3.067-2.123,5.013s0.707,3.598,2.063,4.954s3.067,2.064,4.954,2.064c1.888,0,3.598-0.708,4.954-2.064
	s2.064-3.067,2.064-4.954s-0.708-3.598-2.064-4.954S76.509,14.405,74.563,14.405z M74.563,32.098c-2.949,0-5.485-1.062-7.55-3.125
	c-2.063-2.064-3.066-4.542-3.066-7.491s1.062-5.485,3.126-7.549c2.064-2.064,4.601-3.125,7.549-3.125
	c2.949,0,5.485,1.062,7.55,3.125c2.063,2.064,3.008,4.601,3.008,7.549s-1.063,5.485-3.126,7.549
	C79.988,31.096,77.511,32.098,74.563,32.098z M76.332,53.33c-0.531,0-0.944-0.177-1.298-0.531c-0.354-0.354-0.472-0.767-0.472-1.238
	s0.177-0.885,0.53-1.238c0.354-0.354,0.767-0.531,1.298-0.531h10.557c0.531,0,0.944-0.177,1.298-0.53
	c0.354-0.354,0.531-0.767,0.531-1.298c0-0.236-0.649-1.77-1.888-4.6c-1.238-2.832-5.367-4.247-12.268-4.247c-0.295,0-0.53,0-0.825,0
	s-0.531,0-0.826,0.06c-0.53,0-0.943-0.178-1.297-0.473c-0.354-0.295-0.531-0.707-0.531-1.238c-0.059-0.472,0.118-0.885,0.413-1.238
	s0.767-0.531,1.238-0.531c0.295-0.059,0.648-0.059,0.943-0.059s0.59,0,0.944,0c1.945,0,3.715,0.177,5.366,0.472
	s3.186,0.767,4.542,1.356c1.12,0.531,2.123,1.121,3.066,1.77c0.943,0.707,1.711,1.475,2.359,2.418
	c1.18,1.533,1.828,2.949,2.064,4.306c0.235,1.356,0.295,2.005,0.295,2.063c0,1.475-0.531,2.713-1.534,3.775
	c-1.002,1.062-2.418,1.533-3.893,1.533H76.332z M38.763,6.855c-2.064,2.123-3.126,4.6-3.126,7.549c0,2.89,1.062,5.367,3.126,7.49
	c2.064,2.124,4.542,3.126,7.49,3.126c2.89,0,5.367-1.062,7.49-3.126c2.123-2.064,3.126-4.6,3.126-7.49
	c0-2.949-1.062-5.485-3.126-7.549s-4.541-3.067-7.49-3.067C43.304,3.789,40.827,4.791,38.763,6.855z M40.768,27.438
	c-1.71-0.708-3.185-1.71-4.482-3.008c-1.297-1.238-2.3-2.771-3.067-4.482s-1.121-3.539-1.121-5.485c0-2.005,0.354-3.834,1.121-5.544
	c0.708-1.71,1.77-3.185,3.067-4.482c1.297-1.298,2.772-2.3,4.482-3.067c1.71-0.767,3.539-1.121,5.485-1.121s3.774,0.354,5.485,1.121
	c1.71,0.767,3.243,1.769,4.481,3.067c1.239,1.297,2.241,2.772,3.008,4.482c0.708,1.71,1.121,3.539,1.121,5.544
	c0,1.946-0.354,3.774-1.121,5.484c-0.767,1.711-1.71,3.244-3.008,4.482c-1.238,1.239-2.771,2.241-4.481,3.008
	c-1.711,0.767-3.539,1.121-5.485,1.121C44.307,28.5,42.479,28.146,40.768,27.438z M25.493,49.261c0.354,0.354,0.767,0.53,1.297,0.53
	h38.926c0.53,0,0.943-0.177,1.297-0.53c0.354-0.354,0.531-0.767,0.531-1.298c0-0.059-0.118-0.707-0.354-1.946
	c-0.236-1.238-1.003-2.653-2.241-4.188c-1.711-2.005-4.129-3.598-7.313-4.659c-3.244-1.002-7.019-1.533-11.383-1.533
	s-8.139,0.531-11.324,1.592c-3.185,1.063-5.603,2.596-7.373,4.66c-1.238,1.533-2.005,2.89-2.241,4.188
	c-0.177,1.238-0.295,1.887-0.295,1.945C25.021,48.494,25.139,48.966,25.493,49.261z M26.79,53.33c-1.474,0-2.713-0.531-3.774-1.533
	c-1.062-1.003-1.533-2.301-1.533-3.775c0-0.117,0.118-1.002,0.413-2.653c0.295-1.71,1.239-3.539,2.89-5.544
	c0.943-1.121,2.005-2.123,3.244-3.066c1.238-0.944,2.654-1.711,4.188-2.301c1.946-0.767,4.069-1.356,6.37-1.77
	c2.3-0.412,4.895-0.59,7.608-0.59c2.713,0,5.25,0.178,7.608,0.59c2.359,0.413,4.482,1.003,6.37,1.77
	c1.592,0.59,3.008,1.356,4.246,2.301c1.238,0.943,2.359,1.945,3.303,3.066c1.593,2.005,2.536,3.893,2.831,5.544
	c0.295,1.71,0.413,2.595,0.413,2.653c0,1.475-0.531,2.713-1.533,3.775c-1.003,1.062-2.241,1.533-3.716,1.533H26.79z M12.989,16.469
	c-1.416,1.416-2.123,3.067-2.123,5.013s0.708,3.598,2.064,4.954c1.356,1.356,3.066,2.064,4.954,2.064
	c1.887,0,3.598-0.708,4.954-2.064s2.182-3.008,2.182-4.954s-0.708-3.598-2.064-4.954s-3.067-2.123-5.013-2.123
	S14.346,15.112,12.989,16.469z M10.395,29.031c-2.064-2.123-3.067-4.601-3.067-7.549s1.062-5.485,3.125-7.549
	c2.064-2.064,4.542-3.125,7.49-3.125c2.949,0,5.485,1.062,7.549,3.125c2.064,2.064,3.067,4.601,3.067,7.549
	s-1.062,5.485-3.126,7.549c-2.064,2.064-4.541,3.066-7.49,3.066C14.995,32.098,12.458,31.096,10.395,29.031z M5.558,53.33
	c-1.474,0-2.713-0.531-3.774-1.533c-1.062-1.003-1.534-2.301-1.534-3.775c0-0.059,0.118-0.707,0.295-2.063
	c0.236-1.356,0.885-2.772,2.064-4.306c0.648-0.943,1.416-1.711,2.359-2.418c0.944-0.708,1.946-1.298,3.067-1.77
	c1.356-0.59,2.89-1.062,4.542-1.356s3.479-0.472,5.367-0.472c0.295,0,0.649,0,0.944,0s0.59,0,0.944,0.059
	c0.531,0,0.943,0.178,1.238,0.531s0.472,0.767,0.413,1.238c0,0.531-0.177,0.943-0.531,1.238c-0.354,0.295-0.826,0.473-1.297,0.473
	c-0.354,0-0.59,0-0.885,0s-0.531,0-0.826,0c-6.9,0-11.029,1.415-12.267,4.246c-1.298,2.831-1.887,4.364-1.887,4.6
	c0,0.531,0.177,0.944,0.531,1.298c0.354,0.354,0.767,0.472,1.238,0.472h10.616c0.531,0,0.943,0.178,1.297,0.531
	s0.472,0.767,0.472,1.238c0,0.531-0.177,0.943-0.531,1.298c-0.354,0.354-0.767,0.472-1.238,0.472H5.558z"/>
</svg>
