<?xml version="1.0" encoding="utf-8"?>
<!-- Generator: Adobe Illustrator 16.0.0, SVG Export Plug-In . SVG Version: 6.00 Build 0)  -->
<!DOCTYPE svg PUBLIC "-//W3C//DTD SVG 1.1//EN" "http://www.w3.org/Graphics/SVG/1.1/DTD/svg11.dtd">
<svg version="1.1" id="Layer_1" xmlns="http://www.w3.org/2000/svg" xmlns:xlink="http://www.w3.org/1999/xlink" x="0px" y="0px"
	 width="50.96px" height="79.388px" viewBox="0 0 50.96 79.388" enable-background="new 0 0 50.96 79.388" xml:space="preserve">
<path fill="#347FC2" d="M38.88,16.084c0-1.848-0.353-3.586-1.057-5.214c-0.704-1.628-1.649-3.037-2.882-4.247
	c-1.232-1.21-2.641-2.156-4.269-2.883c-1.629-0.726-3.367-1.078-5.215-1.078c-1.849,0-3.587,0.374-5.215,1.078
	c-1.629,0.704-3.059,1.672-4.269,2.883c-1.211,1.21-2.179,2.618-2.883,4.247c-0.704,1.628-1.057,3.366-1.057,5.214
	c0,2.201,0.221,4.401,0.66,6.602c0.44,2.2,1.013,4.334,1.694,6.403c0.704,2.068,1.475,4.026,2.333,5.919
	c0.857,1.892,1.694,3.608,2.552,5.126c1.188,2.244,2.354,4.225,3.477,5.941c1.145,1.738,2.024,3.059,2.707,4.004
	c0.66-0.945,1.562-2.288,2.706-4.004c1.145-1.738,2.311-3.719,3.543-6.007c0.813-1.54,1.628-3.234,2.486-5.105
	c0.857-1.87,1.628-3.851,2.332-5.918c0.704-2.068,1.276-4.203,1.694-6.403C38.66,20.485,38.88,18.285,38.88,16.084z M41.542,16.084
	c0,2.068-0.198,4.225-0.594,6.469c-0.396,2.245-0.99,4.577-1.761,6.997c-0.638,1.892-1.364,3.829-2.222,5.809
	c-0.858,1.98-1.849,4.004-2.971,6.028c-1.849,3.455-3.543,6.271-5.083,8.406c-1.54,2.156-2.332,3.256-2.42,3.322
	c-0.133,0.176-0.286,0.308-0.463,0.396c-0.176,0.089-0.373,0.132-0.571,0.132s-0.396-0.043-0.572-0.132
	c-0.176-0.088-0.33-0.22-0.462-0.396c-0.066-0.066-0.881-1.188-2.421-3.322c-1.54-2.156-3.234-4.951-5.083-8.406
	c-1.122-2.024-2.111-4.026-2.97-6.028c-0.858-1.98-1.606-3.938-2.223-5.809c-0.771-2.42-1.364-4.752-1.76-6.997
	c-0.396-2.244-0.595-4.401-0.595-6.469c0-2.2,0.418-4.269,1.254-6.227c0.837-1.958,1.98-3.653,3.455-5.105s3.168-2.618,5.104-3.477
	C21.123,0.418,23.213,0,25.458,0c2.244,0,4.313,0.418,6.271,1.276c1.937,0.858,3.652,2.002,5.105,3.455
	c1.474,1.452,2.618,3.146,3.454,5.105C41.124,11.815,41.542,13.884,41.542,16.084z M30.805,16.084c0-1.474-0.528-2.728-1.563-3.762
	c-1.056-1.056-2.311-1.562-3.763-1.562s-2.729,0.528-3.763,1.562c-1.056,1.056-1.562,2.31-1.562,3.762
	c0,1.497,0.527,2.772,1.562,3.829c1.057,1.056,2.311,1.562,3.763,1.562s2.729-0.528,3.763-1.562
	C30.276,18.856,30.805,17.581,30.805,16.084z M31.179,10.43c1.563,1.562,2.354,3.454,2.354,5.654c0,2.245-0.792,4.137-2.354,5.721
	s-3.477,2.354-5.721,2.354c-2.245,0-4.137-0.792-5.722-2.354c-1.584-1.562-2.354-3.477-2.354-5.721c0-2.2,0.792-4.092,2.354-5.654
	c1.563-1.563,3.477-2.354,5.722-2.354C27.702,8.075,29.595,8.845,31.179,10.43z M50.96,29.771v40.244
	c0,0.242-0.066,0.484-0.221,0.704c-0.132,0.22-0.308,0.396-0.527,0.506l-16.129,8.009c-0.176,0.11-0.374,0.154-0.572,0.154
	s-0.396-0.044-0.572-0.154l-15.512-7.701L1.914,79.233c-0.11,0.066-0.198,0.11-0.286,0.133c-0.088,0.021-0.176,0.021-0.286,0.021
	c-0.132,0-0.264-0.021-0.396-0.044s-0.242-0.088-0.33-0.153c-0.221-0.11-0.374-0.265-0.462-0.463C0.044,78.508,0,78.31,0,78.09
	V37.846c0-0.286,0.065-0.528,0.22-0.726c0.132-0.22,0.309-0.374,0.528-0.462l7.547-3.784c0.309,0.814,0.616,1.65,0.969,2.486
	l-6.579,3.278V75.89l13.422-6.711V48.716c0.836,1.342,1.628,2.574,2.376,3.63c0.11,0.132,0.198,0.265,0.286,0.396v16.438
	L32.19,75.89V52.786c0.11-0.133,0.198-0.286,0.309-0.44c0.77-1.078,1.562-2.311,2.42-3.675V75.89l13.422-6.711V31.927l-6.579,3.278
	c0.507-1.232,0.946-2.464,1.365-3.674l5.896-2.949c0.22-0.11,0.418-0.154,0.66-0.132s0.439,0.088,0.66,0.176
	c0.176,0.132,0.33,0.308,0.439,0.506C50.894,29.309,50.96,29.528,50.96,29.771z"/>
</svg>
