<?xml version="1.0" encoding="utf-8"?>
<!-- Generator: Adobe Illustrator 16.0.0, SVG Export Plug-In . SVG Version: 6.00 Build 0)  -->
<!DOCTYPE svg PUBLIC "-//W3C//DTD SVG 1.1//EN" "http://www.w3.org/Graphics/SVG/1.1/DTD/svg11.dtd">
<svg version="1.1" id="Layer_1" xmlns="http://www.w3.org/2000/svg" xmlns:xlink="http://www.w3.org/1999/xlink" x="0px" y="0px"
	 width="38.909px" height="29.181px" viewBox="0 0 38.909 29.181" enable-background="new 0 0 38.909 29.181" xml:space="preserve">
<path fill="#FFFFFF" d="M31.725,25.191c-0.131-0.053-0.23-0.115-0.307-0.191c-0.1-0.1-0.177-0.207-0.229-0.321
	c-0.054-0.115-0.077-0.237-0.077-0.36s0.023-0.252,0.077-0.383c0.053-0.131,0.13-0.229,0.229-0.307
	c0.076-0.1,0.176-0.176,0.307-0.229c0.13-0.054,0.252-0.077,0.383-0.077c0.13,0,0.245,0.023,0.359,0.077
	c0.115,0.054,0.223,0.13,0.322,0.229c0.076,0.077,0.138,0.176,0.191,0.307s0.076,0.253,0.076,0.383c0,0.131-0.022,0.245-0.076,0.36
	C32.927,24.792,32.866,24.9,32.79,25c-0.1,0.076-0.207,0.139-0.322,0.191c-0.114,0.054-0.237,0.077-0.359,0.077
	C31.977,25.268,31.855,25.245,31.725,25.191z M27.528,10.011c-0.192,0.191-0.284,0.414-0.284,0.666v15.579
	c0,0.276,0.092,0.514,0.284,0.705c0.191,0.191,0.413,0.283,0.666,0.283h7.789c0.276,0,0.514-0.092,0.705-0.283
	s0.283-0.422,0.283-0.705V10.677c0-0.252-0.092-0.475-0.283-0.666c-0.191-0.192-0.421-0.284-0.705-0.284h-7.789
	C27.941,9.727,27.719,9.819,27.528,10.011z M28.194,29.181c-0.789,0-1.463-0.283-2.03-0.857c-0.566-0.574-0.857-1.264-0.857-2.068
	V10.677c0-0.789,0.283-1.463,0.857-2.03c0.575-0.566,1.249-0.857,2.03-0.857h7.789c0.813,0,1.501,0.283,2.068,0.857
	c0.566,0.575,0.857,1.249,0.857,2.03v15.579c0,0.813-0.283,1.502-0.857,2.068s-1.264,0.857-2.068,0.857H28.194z M6.801,21.392
	c-0.812,0-1.501-0.283-2.068-0.857s-0.858-1.264-0.858-2.068V2.926c0-0.812,0.284-1.501,0.858-2.068C5.308,0.291,5.99,0,6.801,0
	h25.307c0.812,0,1.501,0.283,2.067,0.858c0.567,0.574,0.858,1.264,0.858,2.068v1.938c0,0.252-0.092,0.475-0.283,0.666
	c-0.192,0.191-0.422,0.284-0.705,0.284c-0.275,0-0.513-0.092-0.705-0.284c-0.191-0.191-0.283-0.414-0.283-0.666V2.926
	c0-0.276-0.092-0.513-0.283-0.705s-0.413-0.283-0.666-0.283H6.801c-0.252,0-0.475,0.092-0.666,0.283S5.852,2.642,5.852,2.926v15.541
	c0,0.275,0.092,0.514,0.284,0.705s0.414,0.283,0.666,0.283H22.38c0.253,0,0.475,0.092,0.666,0.283s0.284,0.414,0.284,0.666
	c0,0.276-0.093,0.514-0.284,0.705s-0.413,0.283-0.666,0.283H6.801z M2.926,29.181c-0.812,0-1.501-0.283-2.068-0.857
	S0,27.068,0,26.255v-1.938c0-0.275,0.092-0.514,0.284-0.705c0.191-0.191,0.421-0.283,0.705-0.283H22.38
	c0.253,0,0.475,0.092,0.666,0.283s0.284,0.422,0.284,0.705c0,0.253-0.093,0.475-0.284,0.666s-0.413,0.284-0.666,0.284H1.938v0.987
	c0,0.276,0.092,0.514,0.283,0.705s0.421,0.283,0.705,0.283H22.38c0.253,0,0.475,0.092,0.666,0.283s0.284,0.414,0.284,0.667
	c0,0.275-0.093,0.513-0.284,0.704s-0.413,0.283-0.666,0.283H2.926z"/>
</svg>
