<?xml version="1.0" encoding="utf-8"?>
<!-- Generator: Adobe Illustrator 16.0.0, SVG Export Plug-In . SVG Version: 6.00 Build 0)  -->
<!DOCTYPE svg PUBLIC "-//W3C//DTD SVG 1.1//EN" "http://www.w3.org/Graphics/SVG/1.1/DTD/svg11.dtd">
<svg version="1.1" id="Layer_1" xmlns="http://www.w3.org/2000/svg" xmlns:xlink="http://www.w3.org/1999/xlink" x="0px" y="0px"
	 width="37.821px" height="37.695px" viewBox="0 0 37.821 37.695" enable-background="new 0 0 37.821 37.695" xml:space="preserve">
<path fill="#FFFFFF" d="M23.477,10.262c-0.576,0.576-0.838,1.204-0.838,1.989s0.262,1.466,0.838,1.989s1.204,0.838,1.989,0.838
	s1.466-0.262,1.989-0.838c0.523-0.576,0.838-1.204,0.838-1.989s-0.262-1.466-0.838-1.989c-0.575-0.524-1.204-0.838-1.989-0.838
	S24,9.686,23.477,10.262z M22.115,15.602c-0.942-0.942-1.361-2.042-1.361-3.351c0-1.309,0.472-2.408,1.361-3.351
	s2.042-1.361,3.351-1.361S27.874,8.01,28.816,8.9c0.942,0.89,1.361,2.042,1.361,3.351c0,1.309-0.471,2.408-1.361,3.351
	c-0.89,0.942-2.042,1.361-3.351,1.361S23.058,16.492,22.115,15.602z M20.23,29.318c0.262-0.942,0.472-1.938,0.472-3.036
	c0.628-0.104,1.413-0.314,2.355-0.628c0.942-0.314,1.938-0.786,3.036-1.414c-0.523,1.57-1.466,2.984-2.827,4.293
	c-1.36,1.309-2.722,2.408-4.031,3.351C19.603,31.099,19.916,30.261,20.23,29.318z M22.849,23.664
	c-1.729,0.576-2.723,0.838-3.037,0.838c-0.419-0.104-0.942-0.367-1.413-0.732c-0.367-0.262-0.733-0.576-1.152-0.943
	c-0.419-0.366-0.838-0.732-1.257-1.151c-0.418-0.366-0.785-0.785-1.099-1.204c-0.367-0.419-0.681-0.785-0.891-1.152
	c-0.366-0.523-0.628-0.995-0.785-1.414c0-0.314,0.262-1.309,0.838-3.037s1.675-3.56,3.455-5.549
	c1.047-1.152,2.199-2.199,3.508-3.142c1.309-0.89,2.723-1.675,4.293-2.304c1.571-0.628,3.194-1.099,4.974-1.414
	c1.78-0.314,3.613-0.523,5.603-0.576c0,1.989-0.21,3.822-0.576,5.602c-0.366,1.78-0.838,3.403-1.466,4.974s-1.414,2.984-2.304,4.293
	s-1.938,2.46-3.142,3.56C26.408,21.988,24.576,23.141,22.849,23.664z M9.236,14.45c1.309-1.361,2.774-2.303,4.293-2.827
	c-0.629,1.1-1.1,2.094-1.414,3.037c-0.313,0.942-0.575,1.728-0.681,2.356c-1.1,0.052-2.146,0.209-3.036,0.523
	c-0.942,0.314-1.78,0.628-2.513,0.942C6.775,17.172,7.875,15.863,9.236,14.45z M7.665,26.91c-0.523,0.419-1.1,0.994-1.675,1.78
	c-0.523,0.785-1.1,1.675-1.676,2.774c-0.575,1.1-1.151,2.304-1.675,3.665c1.256-0.472,2.355-0.995,3.402-1.519
	c0.995-0.523,1.885-1.047,2.671-1.57c0.994-0.681,1.675-1.309,2.094-1.832c0.366-0.523,0.576-0.943,0.628-1.257
	c0.053-0.366,0.053-0.681-0.052-0.995s-0.314-0.628-0.629-0.942c-0.262-0.262-0.471-0.419-0.732-0.575
	c-0.262-0.105-0.523-0.21-0.733-0.21C8.66,26.334,8.188,26.491,7.665,26.91z M33.215,0.157c-1.152,0.104-2.304,0.262-3.352,0.471
	c-1.099,0.21-2.146,0.472-3.141,0.786c-0.995,0.314-1.989,0.681-2.932,1.047c-1.519,0.681-2.933,1.519-4.241,2.409
	c-1.309,0.942-2.461,1.989-3.561,3.193c-0.209,0.209-0.366,0.419-0.575,0.681c-0.21,0.262-0.366,0.471-0.472,0.681
	c-0.838,0.052-1.675,0.209-2.46,0.576c-0.838,0.314-1.676,0.786-2.461,1.361c-0.681,0.471-1.361,1.1-2.095,1.728
	c-0.732,0.68-1.413,1.466-2.094,2.303c-1.152,1.466-2.042,2.775-2.723,3.979s-1.047,1.832-1.047,1.885
	c-0.104,0.209-0.104,0.419-0.053,0.629c0.053,0.209,0.157,0.418,0.367,0.575c0.052,0.053,0.156,0.104,0.262,0.104
	c0.104,0.053,0.209,0.053,0.313,0.053c0.105,0,0.262,0,0.367-0.053c0.104-0.052,0.209-0.104,0.313-0.209
	c0.838-0.732,1.676-1.309,2.408-1.78c0.629-0.366,1.414-0.681,2.408-1.047c0.943-0.367,2.042-0.576,3.194-0.628
	c0.313,0.786,0.785,1.571,1.466,2.356s1.257,1.414,1.675,1.78c0.419,0.419,1.048,0.995,1.833,1.675
	c0.785,0.682,1.57,1.152,2.355,1.467c-0.052,1.151-0.262,2.251-0.628,3.193s-0.681,1.779-1.047,2.408
	c-0.419,0.785-1.047,1.57-1.78,2.408c-0.157,0.157-0.262,0.366-0.262,0.629c0,0.209,0.053,0.418,0.157,0.627
	c0.104,0.158,0.209,0.263,0.366,0.314c0.157,0.053,0.262,0.105,0.419,0.105c0.053,0,0.157,0,0.209,0c0.053,0,0.157-0.053,0.21-0.105
	c0.052,0,0.681-0.366,1.885-1.047s2.513-1.57,3.979-2.723c0.838-0.68,1.623-1.361,2.304-2.094c0.681-0.681,1.257-1.414,1.728-2.094
	c0.576-0.838,1.048-1.676,1.361-2.461c0.314-0.838,0.523-1.623,0.576-2.461c0.209-0.157,0.419-0.366,0.681-0.523
	s0.419-0.367,0.681-0.576c1.204-1.047,2.251-2.251,3.246-3.56c0.942-1.309,1.728-2.722,2.408-4.241
	c0.419-0.942,0.785-1.885,1.1-2.932c0.313-0.995,0.575-2.042,0.785-3.142c0.209-1.099,0.366-2.199,0.471-3.351
	c-0.156-1.204-0.104-2.356-0.104-3.612V0h-0.942C35.57,0,34.366,0.052,33.215,0.157z M0.598,37.643
	c-0.104-0.052-0.21-0.104-0.314-0.209c-0.104-0.157-0.209-0.314-0.262-0.471c-0.052-0.158,0-0.367,0.053-0.524
	c0.732-1.989,1.466-3.717,2.198-5.235c0.733-1.518,1.519-2.774,2.252-3.77c0.732-0.994,1.518-1.779,2.304-2.251
	c0.785-0.523,1.57-0.733,2.355-0.733c0.523,0,0.995,0.105,1.466,0.314c0.472,0.209,0.942,0.576,1.361,0.994
	c0.681,0.682,1.1,1.361,1.204,1.99c0.104,0.628,0.104,1.204,0,1.676c-0.157,0.732-0.523,1.413-1.1,2.094
	c-0.575,0.681-1.361,1.414-2.355,2.094c-0.995,0.681-2.199,1.361-3.612,2.042c-1.414,0.681-3.037,1.361-4.869,2.042
	c-0.053,0-0.104,0-0.157,0s-0.104,0-0.157,0C0.859,37.695,0.755,37.695,0.598,37.643z"/>
</svg>
