<?xml version="1.0" encoding="utf-8"?>
<!-- Generator: Adobe Illustrator 16.0.0, SVG Export Plug-In . SVG Version: 6.00 Build 0)  -->
<!DOCTYPE svg PUBLIC "-//W3C//DTD SVG 1.1//EN" "http://www.w3.org/Graphics/SVG/1.1/DTD/svg11.dtd">
<svg version="1.1" id="Layer_1" xmlns="http://www.w3.org/2000/svg" xmlns:xlink="http://www.w3.org/1999/xlink" x="0px" y="0px"
	 width="36.09px" height="37.943px" viewBox="0 0 36.09 37.943" enable-background="new 0 0 36.09 37.943" xml:space="preserve">
<path fill="#FFFFFF" d="M2.344,14.352c0,1.662,0.314,3.212,0.953,4.671s1.5,2.726,2.584,3.82c1.084,1.095,2.351,1.956,3.81,2.583
	c1.459,0.629,3.01,0.943,4.671,0.943s3.212-0.314,4.671-0.943c1.459-0.627,2.725-1.488,3.809-2.583
	c1.085-1.095,1.946-2.371,2.584-3.82c0.639-1.459,0.953-3.009,0.953-4.671c0-1.662-0.314-3.212-0.953-4.671
	c-0.638-1.459-1.499-2.726-2.584-3.81c-1.084-1.084-2.35-1.945-3.809-2.584c-1.459-0.638-3.01-0.952-4.671-0.952
	S11.15,2.648,9.69,3.286c-1.459,0.639-2.726,1.5-3.81,2.584C4.796,6.954,3.935,8.231,3.297,9.68
	C2.659,11.139,2.344,12.689,2.344,14.352z M35.357,35.894c0.173,0.192,0.243,0.415,0.233,0.669
	c-0.011,0.253-0.111,0.466-0.305,0.628c-0.07,0.091-0.162,0.162-0.273,0.202c-0.111,0.041-0.223,0.051-0.344,0.051
	c-0.122,0-0.244-0.02-0.365-0.07s-0.233-0.121-0.324-0.213L23.015,25.173c-1.226,0.983-2.584,1.743-4.063,2.26
	c-1.479,0.517-3.01,0.78-4.601,0.78c-1.854,0-3.617-0.345-5.299-1.044C7.37,26.471,5.86,25.477,4.543,24.17
	c-1.297-1.327-2.3-2.827-2.999-4.509C0.845,17.979,0.5,16.206,0.5,14.352c0-1.854,0.345-3.618,1.044-5.3
	C2.243,7.37,3.236,5.88,4.543,4.573c1.328-1.327,2.827-2.331,4.509-3.03S12.498,0.5,14.352,0.5c1.854,0,3.618,0.344,5.299,1.043
	s3.191,1.712,4.51,3.03c1.297,1.297,2.3,2.787,2.999,4.479c0.698,1.682,1.044,3.455,1.044,5.3c0,1.803-0.335,3.526-0.994,5.178
	c-0.658,1.651-1.6,3.11-2.836,4.387L35.357,35.894z"/>
<path fill="none" stroke="#FFFFFF" d="M2.344,14.352c0,1.662,0.314,3.212,0.953,4.671s1.5,2.726,2.584,3.82
	c1.084,1.095,2.351,1.956,3.81,2.583c1.459,0.629,3.01,0.943,4.671,0.943s3.212-0.314,4.671-0.943
	c1.459-0.627,2.725-1.488,3.809-2.583c1.085-1.095,1.946-2.371,2.584-3.82c0.639-1.459,0.953-3.009,0.953-4.671
	c0-1.662-0.314-3.212-0.953-4.671c-0.638-1.459-1.499-2.726-2.584-3.81c-1.084-1.084-2.35-1.945-3.809-2.584
	c-1.459-0.638-3.01-0.952-4.671-0.952S11.15,2.648,9.69,3.286c-1.459,0.639-2.726,1.5-3.81,2.584
	C4.796,6.954,3.935,8.231,3.297,9.68C2.659,11.139,2.344,12.689,2.344,14.352z M35.357,35.894c0.173,0.192,0.243,0.415,0.233,0.669
	c-0.011,0.253-0.111,0.466-0.305,0.628c-0.07,0.091-0.162,0.162-0.273,0.202c-0.111,0.041-0.223,0.051-0.344,0.051
	c-0.122,0-0.244-0.02-0.365-0.07s-0.233-0.121-0.324-0.213L23.015,25.173c-1.226,0.983-2.584,1.743-4.063,2.26
	c-1.479,0.517-3.01,0.78-4.601,0.78c-1.854,0-3.617-0.345-5.299-1.044C7.37,26.471,5.86,25.477,4.543,24.17
	c-1.297-1.327-2.3-2.827-2.999-4.509C0.845,17.979,0.5,16.206,0.5,14.352c0-1.854,0.345-3.618,1.044-5.3
	C2.243,7.37,3.236,5.88,4.543,4.573c1.328-1.327,2.827-2.331,4.509-3.03S12.498,0.5,14.352,0.5c1.854,0,3.618,0.344,5.299,1.043
	s3.191,1.712,4.51,3.03c1.297,1.297,2.3,2.787,2.999,4.479c0.698,1.682,1.044,3.455,1.044,5.3c0,1.803-0.335,3.526-0.994,5.178
	c-0.658,1.651-1.6,3.11-2.836,4.387L35.357,35.894z"/>
</svg>
