<?xml version="1.0" encoding="utf-8"?>
<!-- Generator: Adobe Illustrator 19.2.1, SVG Export Plug-In . SVG Version: 6.00 Build 0)  -->
<svg version="1.1" id="Layer_1" xmlns="http://www.w3.org/2000/svg" xmlns:xlink="http://www.w3.org/1999/xlink" x="0px" y="0px"
	 viewBox="0 0 424 131" style="enable-background:new 0 0 424 131;" xml:space="preserve">
<style type="text/css">
	.st0{fill:#256296;}
	.st1{fill:#2B74B3;}
	.st2{fill:#0D83DD;}
	.st3{fill:#FFFFFF;}
	.st4{fill:#9C9B9B;}
</style>
<g>
	<circle class="st0" cx="65.5" cy="65.5" r="63.8"/>
	<path class="st1" d="M65.5,1.7C30.3,1.7,1.7,30.3,1.7,65.5c0,35.2,28.6,63.8,63.8,63.8s63.8-28.6,63.8-63.8H65.5V1.7z"/>
	<g>
		
			<image style="overflow:visible;opacity:0.15;" width="447" height="447" xlink:href="9C14457CD056B56A.png"  transform="matrix(0.24 0 0 0.24 11.9148 11.9252)">
		</image>
		<g>
			<circle class="st2" cx="65.5" cy="65.5" r="38.3"/>
		</g>
	</g>
	<g>
		<path class="st3" d="M75.8,48.7c0.7,0,1.2-0.5,1.2-1.2v-2.1c0-0.7-0.5-1.2-1.2-1.2H55.2c-0.7,0-1.2,0.5-1.2,1.2v2.1
			c0,0.7,0.5,1.2,1.2,1.2h6.4c0.7,0,1.2,0.5,1.2,1.2v6.5c0,0.7-0.5,1.2-1.2,1.2h-6.4c-0.7,0-1.2,0.5-1.2,1.2v2.1
			c0,0.7,0.5,1.2,1.2,1.2h6.4c0.7,0,1.2,0.5,1.2,1.2v8.9c0,0.7,0,1.7,0,2.4v11c0,0.7,0.5,1.2,1.2,1.2h3c0.7,0,1.2-0.5,1.2-1.2v-11
			c0-0.7,0-1.7,0-2.4v-8.9c0-0.7,0.5-1.2,1.2-1.2h6.4c0.7,0,1.2-0.5,1.2-1.2v-2.1c0-0.7-0.5-1.2-1.2-1.2h-6.4
			c-0.7,0-1.2-0.5-1.2-1.2v-6.5c0-0.7,0.5-1.2,1.2-1.2H75.8z"/>
	</g>
	<g>
		<path class="st2" d="M166.9,43.5v3.8h-7.4v20.8H155V47.3h-7.4v-3.8H166.9z"/>
		<path class="st2" d="M178.6,58.5v9.6h-4.6V43.5h7.5c1.7,0,3.1,0.2,4.3,0.5s2.2,0.8,2.9,1.5c0.8,0.6,1.3,1.4,1.7,2.2
			c0.4,0.9,0.5,1.8,0.5,2.9c0,0.8-0.1,1.6-0.4,2.3c-0.2,0.7-0.6,1.4-1.1,2c-0.5,0.6-1,1.1-1.7,1.6c-0.7,0.5-1.4,0.8-2.3,1.1
			c0.6,0.3,1.1,0.8,1.5,1.4l6.2,9.1h-4.1c-0.4,0-0.7-0.1-1-0.2c-0.3-0.2-0.5-0.4-0.7-0.7l-5.2-7.9c-0.2-0.3-0.4-0.5-0.6-0.6
			c-0.2-0.1-0.6-0.2-1-0.2H178.6z M178.6,55.2h2.9c0.9,0,1.6-0.1,2.3-0.3s1.2-0.5,1.6-0.9c0.4-0.4,0.7-0.8,0.9-1.4
			c0.2-0.5,0.3-1.1,0.3-1.7c0-1.2-0.4-2.2-1.2-2.9c-0.8-0.7-2.1-1-3.8-1h-2.9V55.2z"/>
		<path class="st2" d="M221.9,68.1h-3.5c-0.4,0-0.7-0.1-1-0.3s-0.4-0.4-0.6-0.7l-1.8-5h-10.2l-1.8,5c-0.1,0.3-0.3,0.5-0.5,0.7
			c-0.3,0.2-0.6,0.3-1,0.3h-3.6l9.7-24.6h4.7L221.9,68.1z M205.9,58.8h7.8l-3-8.2c-0.1-0.4-0.3-0.8-0.5-1.3c-0.2-0.5-0.3-1-0.5-1.6
			c-0.2,0.6-0.3,1.1-0.5,1.6c-0.2,0.5-0.3,0.9-0.5,1.3L205.9,58.8z"/>
		<path class="st2" d="M233.6,68.1H229V43.5h4.6V68.1z"/>
		<path class="st2" d="M246.1,43.5c0.1,0,0.3,0.1,0.4,0.1c0.1,0.1,0.2,0.1,0.3,0.2c0.1,0.1,0.2,0.2,0.3,0.4l12.9,16.4
			c0-0.4-0.1-0.8-0.1-1.2c0-0.4,0-0.7,0-1.1V43.5h4v24.6h-2.4c-0.4,0-0.7-0.1-0.9-0.2s-0.5-0.3-0.7-0.6l-12.9-16.4
			c0,0.4,0.1,0.7,0.1,1.1c0,0.4,0,0.7,0,1v15.1h-4V43.5h2.4C245.8,43.5,246,43.5,246.1,43.5z"/>
		<path class="st2" d="M278.2,68.1h-4.6V43.5h4.6V68.1z"/>
		<path class="st2" d="M290.7,43.5c0.1,0,0.3,0.1,0.4,0.1c0.1,0.1,0.2,0.1,0.3,0.2c0.1,0.1,0.2,0.2,0.3,0.4l12.9,16.4
			c0-0.4-0.1-0.8-0.1-1.2c0-0.4,0-0.7,0-1.1V43.5h4v24.6h-2.4c-0.4,0-0.7-0.1-0.9-0.2s-0.5-0.3-0.7-0.6l-12.9-16.4
			c0,0.4,0.1,0.7,0.1,1.1c0,0.4,0,0.7,0,1v15.1h-4V43.5h2.4C290.4,43.5,290.5,43.5,290.7,43.5z"/>
		<path class="st2" d="M328.8,64.7c1,0,1.9-0.1,2.7-0.3c0.8-0.2,1.5-0.4,2.2-0.8v-4.5h-3.1c-0.3,0-0.5-0.1-0.7-0.2
			c-0.2-0.2-0.3-0.4-0.3-0.6v-2.6h8.2v9.9c-0.6,0.5-1.3,0.8-1.9,1.2c-0.7,0.3-1.4,0.6-2.2,0.8s-1.6,0.4-2.5,0.5
			c-0.9,0.1-1.8,0.2-2.8,0.2c-1.8,0-3.4-0.3-4.9-0.9c-1.5-0.6-2.8-1.5-3.9-2.6c-1.1-1.1-2-2.4-2.6-4c-0.6-1.5-0.9-3.2-0.9-5
			c0-1.8,0.3-3.5,0.9-5.1c0.6-1.5,1.5-2.9,2.6-4c1.1-1.1,2.4-2,4-2.6s3.3-0.9,5.3-0.9c2,0,3.7,0.3,5.2,0.9c1.5,0.6,2.7,1.4,3.7,2.3
			l-1.3,2.1c-0.3,0.4-0.6,0.6-1,0.6c-0.3,0-0.5-0.1-0.8-0.3c-0.4-0.2-0.7-0.4-1.1-0.6c-0.4-0.2-0.8-0.4-1.3-0.6s-1-0.3-1.5-0.4
			s-1.2-0.2-2-0.2c-1.2,0-2.3,0.2-3.3,0.6c-1,0.4-1.8,1-2.5,1.8c-0.7,0.8-1.2,1.7-1.6,2.7s-0.6,2.3-0.6,3.6c0,1.4,0.2,2.7,0.6,3.8
			c0.4,1.1,1,2,1.7,2.8s1.6,1.3,2.5,1.7C326.6,64.5,327.7,64.7,328.8,64.7z"/>
		<path class="st2" d="M365.9,68.1h-1.8V56.6h-15.1v11.5h-1.8V44h1.8v11.2h15.1V44h1.8V68.1z"/>
		<path class="st2" d="M386,66.9c1.2,0,2.2-0.2,3.1-0.6c0.9-0.4,1.7-1,2.3-1.7c0.6-0.7,1.1-1.6,1.5-2.5c0.3-1,0.5-2,0.5-3.1V44h1.7
			v14.9c0,1.3-0.2,2.6-0.6,3.7c-0.4,1.2-1,2.2-1.8,3c-0.8,0.9-1.7,1.5-2.9,2c-1.1,0.5-2.4,0.7-3.8,0.7s-2.7-0.2-3.8-0.7
			c-1.1-0.5-2.1-1.2-2.9-2c-0.8-0.9-1.4-1.9-1.8-3c-0.4-1.2-0.6-2.4-0.6-3.7V44h1.8v14.9c0,1.1,0.2,2.2,0.5,3.1
			c0.3,1,0.8,1.8,1.4,2.5c0.6,0.7,1.4,1.3,2.3,1.7S384.8,66.9,386,66.9z"/>
		<path class="st2" d="M406.1,68.1V44h6.9c1.4,0,2.6,0.1,3.6,0.4s1.8,0.7,2.5,1.2c0.7,0.5,1.1,1.2,1.5,1.9s0.5,1.6,0.5,2.6
			c0,0.6-0.1,1.2-0.3,1.8c-0.2,0.6-0.5,1.1-1,1.6c-0.4,0.5-0.9,0.9-1.5,1.3c-0.6,0.4-1.3,0.6-2.1,0.8c1.9,0.3,3.3,0.9,4.4,1.9
			c1,1,1.5,2.3,1.5,3.9c0,1-0.2,1.9-0.5,2.8c-0.4,0.8-0.9,1.5-1.6,2.1c-0.7,0.6-1.5,1-2.6,1.3c-1,0.3-2.2,0.5-3.4,0.5H406.1z
			 M407.8,55.3h5.2c1.1,0,2.1-0.1,2.8-0.4c0.8-0.3,1.4-0.7,1.9-1.1c0.5-0.5,0.9-1,1.1-1.6c0.2-0.6,0.4-1.2,0.4-1.8
			c0-1.6-0.5-2.8-1.5-3.7s-2.6-1.2-4.8-1.2h-5.2V55.3z M407.8,56.6v10.1h6c2.1,0,3.7-0.5,4.8-1.4c1.1-0.9,1.6-2.2,1.6-3.9
			c0-0.8-0.1-1.4-0.4-2c-0.3-0.6-0.7-1.1-1.2-1.5s-1.2-0.8-2-1c-0.8-0.2-1.7-0.3-2.7-0.3H407.8z"/>
	</g>
	<g>
		<path class="st4" d="M155.7,89.4h4V90H155v-8.5h0.6V89.4z"/>
		<path class="st4" d="M169.2,81.5V82h-4.5v3.4h3.7v0.5h-3.7v3.5h4.5V90h-5.1v-8.5H169.2z"/>
		<path class="st4" d="M180.5,90h-0.5c-0.1,0-0.1,0-0.1,0c0,0-0.1-0.1-0.1-0.1l-1-2.5h-4.2l-1,2.5c0,0,0,0.1-0.1,0.1
			c0,0-0.1,0-0.1,0H173l3.5-8.5h0.6L180.5,90z M174.9,86.9h3.8l-1.7-4.3c0-0.1-0.1-0.1-0.1-0.2s-0.1-0.2-0.1-0.3
			c0,0.1-0.1,0.2-0.1,0.3c0,0.1-0.1,0.2-0.1,0.2L174.9,86.9z"/>
		<path class="st4" d="M185.6,86.1V90H185v-8.5h2.2c1,0,1.7,0.2,2.2,0.6c0.5,0.4,0.7,0.9,0.7,1.7c0,0.3-0.1,0.6-0.2,0.9
			c-0.1,0.3-0.3,0.5-0.5,0.7c-0.2,0.2-0.5,0.4-0.8,0.5s-0.6,0.2-1,0.3c0.1,0.1,0.2,0.1,0.3,0.2l2.9,3.7h-0.5c-0.1,0-0.1,0-0.2,0
			s-0.1-0.1-0.1-0.1l-2.7-3.4c-0.1-0.1-0.1-0.1-0.2-0.2c-0.1,0-0.2-0.1-0.4-0.1H185.6z M185.6,85.7h1.5c0.4,0,0.7,0,1-0.1
			c0.3-0.1,0.5-0.2,0.8-0.4s0.4-0.4,0.5-0.6c0.1-0.2,0.2-0.5,0.2-0.8c0-0.6-0.2-1.1-0.6-1.3c-0.4-0.3-1-0.4-1.7-0.4h-1.6V85.7z"/>
		<path class="st4" d="M195.8,81.5c0,0,0.1,0,0.1,0.1l5.5,7.4c0-0.1,0-0.2,0-0.3v-7.1h0.5V90h-0.3c-0.1,0-0.2,0-0.2-0.1l-5.5-7.4
			c0,0.1,0,0.2,0,0.3V90h-0.5v-8.5h0.3C195.7,81.5,195.7,81.5,195.8,81.5z"/>
		<path class="st4" d="M208.2,90h-0.6v-8.5h0.6V90z"/>
		<path class="st4" d="M214.3,81.5c0,0,0.1,0,0.1,0.1l5.5,7.4c0-0.1,0-0.2,0-0.3v-7.1h0.5V90h-0.3c-0.1,0-0.2,0-0.2-0.1l-5.5-7.4
			c0,0.1,0,0.2,0,0.3V90h-0.5v-8.5h0.3C214.2,81.5,214.3,81.5,214.3,81.5z"/>
		<path class="st4" d="M229.5,89.6c0.3,0,0.6,0,0.8,0c0.2,0,0.5-0.1,0.7-0.1s0.4-0.1,0.6-0.2c0.2-0.1,0.4-0.2,0.6-0.3v-2.3h-1.6
			c0,0-0.1,0-0.1,0c0,0,0-0.1,0-0.1v-0.3h2.3v3c-0.2,0.1-0.4,0.3-0.7,0.4c-0.2,0.1-0.5,0.2-0.7,0.3c-0.3,0.1-0.5,0.1-0.8,0.2
			c-0.3,0-0.6,0.1-1,0.1c-0.6,0-1.2-0.1-1.7-0.3c-0.5-0.2-0.9-0.5-1.3-0.9c-0.4-0.4-0.6-0.8-0.8-1.4s-0.3-1.1-0.3-1.8
			c0-0.7,0.1-1.3,0.3-1.8c0.2-0.5,0.5-1,0.9-1.4c0.4-0.4,0.8-0.7,1.3-0.9c0.5-0.2,1.1-0.3,1.8-0.3c0.3,0,0.6,0,0.9,0.1
			c0.3,0,0.5,0.1,0.8,0.2c0.2,0.1,0.5,0.2,0.7,0.3s0.4,0.3,0.6,0.4l-0.2,0.3c0,0.1-0.1,0.1-0.2,0.1c0,0-0.1,0-0.1,0
			c-0.1,0-0.1-0.1-0.3-0.2c-0.1-0.1-0.3-0.2-0.5-0.3c-0.2-0.1-0.4-0.2-0.7-0.3c-0.3-0.1-0.6-0.1-1.1-0.1c-0.6,0-1.1,0.1-1.5,0.3
			c-0.4,0.2-0.8,0.4-1.1,0.8c-0.3,0.3-0.6,0.7-0.7,1.2c-0.2,0.5-0.3,1-0.3,1.6c0,0.6,0.1,1.1,0.3,1.6s0.4,0.9,0.7,1.2
			c0.3,0.3,0.7,0.6,1.1,0.8C228.5,89.5,229,89.6,229.5,89.6z"/>
		<path class="st4" d="M248.2,81.5V82h-4.5v3.6h3.9v0.5h-3.9V90h-0.6v-8.5H248.2z"/>
		<path class="st4" d="M260.4,85.7c0,0.7-0.1,1.3-0.3,1.8c-0.2,0.5-0.5,1-0.8,1.4c-0.4,0.4-0.8,0.7-1.3,0.9c-0.5,0.2-1,0.3-1.6,0.3
			c-0.6,0-1.1-0.1-1.6-0.3c-0.5-0.2-0.9-0.5-1.3-0.9c-0.4-0.4-0.6-0.8-0.8-1.4c-0.2-0.5-0.3-1.1-0.3-1.8c0-0.7,0.1-1.2,0.3-1.8
			c0.2-0.5,0.5-1,0.8-1.4c0.4-0.4,0.8-0.7,1.3-0.9c0.5-0.2,1-0.3,1.6-0.3c0.6,0,1.2,0.1,1.6,0.3s0.9,0.5,1.3,0.9s0.6,0.8,0.8,1.4
			C260.3,84.5,260.4,85.1,260.4,85.7z M259.8,85.7c0-0.6-0.1-1.1-0.2-1.6c-0.2-0.5-0.4-0.9-0.7-1.2s-0.7-0.6-1.1-0.8
			c-0.4-0.2-0.9-0.3-1.4-0.3c-0.5,0-1,0.1-1.4,0.3c-0.4,0.2-0.8,0.4-1.1,0.8c-0.3,0.3-0.5,0.7-0.7,1.2c-0.2,0.5-0.2,1-0.2,1.6
			c0,0.6,0.1,1.1,0.2,1.6s0.4,0.9,0.7,1.2c0.3,0.3,0.7,0.6,1.1,0.8c0.4,0.2,0.9,0.3,1.4,0.3c0.5,0,1-0.1,1.4-0.3
			c0.4-0.2,0.8-0.4,1.1-0.8c0.3-0.3,0.5-0.7,0.7-1.2S259.8,86.3,259.8,85.7z"/>
		<path class="st4" d="M266.2,86.1V90h-0.6v-8.5h2.2c1,0,1.7,0.2,2.2,0.6c0.5,0.4,0.7,0.9,0.7,1.7c0,0.3-0.1,0.6-0.2,0.9
			c-0.1,0.3-0.3,0.5-0.5,0.7c-0.2,0.2-0.5,0.4-0.8,0.5s-0.6,0.2-1,0.3c0.1,0.1,0.2,0.1,0.3,0.2l2.9,3.7h-0.5c-0.1,0-0.1,0-0.2,0
			s-0.1-0.1-0.1-0.1l-2.7-3.4c-0.1-0.1-0.1-0.1-0.2-0.2c-0.1,0-0.2-0.1-0.4-0.1H266.2z M266.2,85.7h1.5c0.4,0,0.7,0,1-0.1
			c0.3-0.1,0.5-0.2,0.8-0.4s0.4-0.4,0.5-0.6c0.1-0.2,0.2-0.5,0.2-0.8c0-0.6-0.2-1.1-0.6-1.3c-0.4-0.3-1-0.4-1.7-0.4h-1.6V85.7z"/>
		<path class="st4" d="M287.5,90h-0.5c-0.1,0-0.1,0-0.1,0c0,0-0.1-0.1-0.1-0.1l-1-2.5h-4.2l-1,2.5c0,0,0,0.1-0.1,0.1
			c0,0-0.1,0-0.1,0H280l3.5-8.5h0.6L287.5,90z M281.9,86.9h3.8l-1.7-4.3c0-0.1-0.1-0.1-0.1-0.2s-0.1-0.2-0.1-0.3
			c0,0.1-0.1,0.2-0.1,0.3c0,0.1-0.1,0.2-0.1,0.2L281.9,86.9z"/>
		<path class="st4" d="M297.1,90v-8.5h2.4c0.5,0,0.9,0,1.3,0.1c0.4,0.1,0.6,0.2,0.9,0.4c0.2,0.2,0.4,0.4,0.5,0.7
			c0.1,0.3,0.2,0.6,0.2,0.9c0,0.2,0,0.4-0.1,0.6s-0.2,0.4-0.3,0.6c-0.1,0.2-0.3,0.3-0.5,0.5s-0.5,0.2-0.7,0.3
			c0.7,0.1,1.2,0.3,1.5,0.7c0.4,0.3,0.5,0.8,0.5,1.4c0,0.4-0.1,0.7-0.2,1s-0.3,0.5-0.6,0.7c-0.2,0.2-0.5,0.4-0.9,0.5
			c-0.4,0.1-0.8,0.2-1.2,0.2H297.1z M297.7,85.4h1.8c0.4,0,0.7,0,1-0.1c0.3-0.1,0.5-0.2,0.7-0.4c0.2-0.2,0.3-0.4,0.4-0.6
			s0.1-0.4,0.1-0.6c0-0.6-0.2-1-0.5-1.3s-0.9-0.4-1.7-0.4h-1.8V85.4z M297.7,85.9v3.6h2.1c0.7,0,1.3-0.2,1.7-0.5
			c0.4-0.3,0.6-0.8,0.6-1.4c0-0.3-0.1-0.5-0.2-0.7c-0.1-0.2-0.2-0.4-0.4-0.5s-0.4-0.3-0.7-0.3c-0.3-0.1-0.6-0.1-1-0.1H297.7z"/>
		<path class="st4" d="M312.8,81.5V82h-4.5v3.4h3.7v0.5h-3.7v3.5h4.5V90h-5.1v-8.5H312.8z"/>
		<path class="st4" d="M323.3,81.5V82h-3v8h-0.6v-8h-3v-0.5H323.3z"/>
		<path class="st4" d="M333.2,81.5V82h-3v8h-0.6v-8h-3v-0.5H333.2z"/>
		<path class="st4" d="M342.7,81.5V82h-4.5v3.4h3.7v0.5h-3.7v3.5h4.5V90h-5.1v-8.5H342.7z"/>
		<path class="st4" d="M348.5,86.1V90h-0.6v-8.5h2.2c1,0,1.7,0.2,2.2,0.6c0.5,0.4,0.7,0.9,0.7,1.7c0,0.3-0.1,0.6-0.2,0.9
			c-0.1,0.3-0.3,0.5-0.5,0.7c-0.2,0.2-0.5,0.4-0.8,0.5s-0.6,0.2-1,0.3c0.1,0.1,0.2,0.1,0.3,0.2l2.9,3.7h-0.5c-0.1,0-0.1,0-0.2,0
			s-0.1-0.1-0.1-0.1l-2.7-3.4c-0.1-0.1-0.1-0.1-0.2-0.2c-0.1,0-0.2-0.1-0.4-0.1H348.5z M348.5,85.7h1.5c0.4,0,0.7,0,1-0.1
			c0.3-0.1,0.5-0.2,0.8-0.4s0.4-0.4,0.5-0.6c0.1-0.2,0.2-0.5,0.2-0.8c0-0.6-0.2-1.1-0.6-1.3c-0.4-0.3-1-0.4-1.7-0.4h-1.6V85.7z"/>
		<path class="st4" d="M368.5,81.5V82h-4.5v3.6h3.9v0.5h-3.9V90h-0.6v-8.5H368.5z"/>
		<path class="st4" d="M376.4,89.5c0.4,0,0.8-0.1,1.1-0.2c0.3-0.1,0.6-0.3,0.8-0.6c0.2-0.3,0.4-0.5,0.5-0.9c0.1-0.3,0.2-0.7,0.2-1.1
			v-5.2h0.6v5.2c0,0.5-0.1,0.9-0.2,1.3c-0.1,0.4-0.4,0.8-0.6,1.1c-0.3,0.3-0.6,0.5-1,0.7c-0.4,0.2-0.8,0.3-1.3,0.3
			c-0.5,0-0.9-0.1-1.3-0.3c-0.4-0.2-0.7-0.4-1-0.7c-0.3-0.3-0.5-0.7-0.6-1.1c-0.1-0.4-0.2-0.8-0.2-1.3v-5.2h0.6v5.2
			c0,0.4,0.1,0.8,0.2,1.1c0.1,0.3,0.3,0.6,0.5,0.9c0.2,0.3,0.5,0.5,0.8,0.6C375.6,89.5,376,89.5,376.4,89.5z"/>
		<path class="st4" d="M390.5,81.5V82h-3v8h-0.6v-8h-3v-0.5H390.5z"/>
		<path class="st4" d="M398.1,89.5c0.4,0,0.8-0.1,1.1-0.2c0.3-0.1,0.6-0.3,0.8-0.6c0.2-0.3,0.4-0.5,0.5-0.9c0.1-0.3,0.2-0.7,0.2-1.1
			v-5.2h0.6v5.2c0,0.5-0.1,0.9-0.2,1.3c-0.1,0.4-0.4,0.8-0.6,1.1c-0.3,0.3-0.6,0.5-1,0.7c-0.4,0.2-0.8,0.3-1.3,0.3
			c-0.5,0-0.9-0.1-1.3-0.3c-0.4-0.2-0.7-0.4-1-0.7c-0.3-0.3-0.5-0.7-0.6-1.1c-0.1-0.4-0.2-0.8-0.2-1.3v-5.2h0.6v5.2
			c0,0.4,0.1,0.8,0.2,1.1c0.1,0.3,0.3,0.6,0.5,0.9c0.2,0.3,0.5,0.5,0.8,0.6C397.3,89.5,397.7,89.5,398.1,89.5z"/>
		<path class="st4" d="M407.5,86.1V90h-0.6v-8.5h2.2c1,0,1.7,0.2,2.2,0.6c0.5,0.4,0.7,0.9,0.7,1.7c0,0.3-0.1,0.6-0.2,0.9
			c-0.1,0.3-0.3,0.5-0.5,0.7c-0.2,0.2-0.5,0.4-0.8,0.5s-0.6,0.2-1,0.3c0.1,0.1,0.2,0.1,0.3,0.2l2.9,3.7h-0.5c-0.1,0-0.1,0-0.2,0
			s-0.1-0.1-0.1-0.1l-2.7-3.4c-0.1-0.1-0.1-0.1-0.2-0.2c-0.1,0-0.2-0.1-0.4-0.1H407.5z M407.5,85.7h1.5c0.4,0,0.7,0,1-0.1
			c0.3-0.1,0.5-0.2,0.8-0.4s0.4-0.4,0.5-0.6c0.1-0.2,0.2-0.5,0.2-0.8c0-0.6-0.2-1.1-0.6-1.3c-0.4-0.3-1-0.4-1.7-0.4h-1.6V85.7z"/>
		<path class="st4" d="M422.3,81.5V82h-4.5v3.4h3.7v0.5h-3.7v3.5h4.5V90h-5.1v-8.5H422.3z"/>
	</g>
</g>
</svg>
